<svg width="36" height="37" viewBox="0 0 36 37" fill="none" xmlns="http://www.w3.org/2000/svg">
<g clip-path="url(#clip0_1_36840)">
<path d="M28 0.365723H8C3.58172 0.365723 0 3.94744 0 8.36572V28.3657C0 32.784 3.58172 36.3657 8 36.3657H28C32.4183 36.3657 36 32.784 36 28.3657V8.36572C36 3.94744 32.4183 0.365723 28 0.365723Z" fill="url(#paint0_linear_1_36840)"/>
<path fill-rule="evenodd" clip-rule="evenodd" d="M9.38568 15.3015C13.2014 8.30981 15.1093 4.81396 17.9983 4.81396C20.8873 4.81396 22.7952 8.30981 26.6109 15.3015C28.8584 19.4195 30.398 22.2406 30.8755 24.3657H5.12109C5.59865 22.2406 7.13825 19.4195 9.38568 15.3015ZM14.8084 17.1339C16.2217 14.7137 16.9283 13.5036 17.9983 13.5036C19.0683 13.5036 19.7749 14.7137 21.1882 17.1339C22.5096 19.3969 23.1703 20.5284 22.6455 21.3608C22.1206 22.1933 20.7465 22.1933 17.9983 22.1933C15.2501 22.1933 13.876 22.1933 13.3511 21.3608C12.8263 20.5284 13.487 19.3969 14.8084 17.1339Z" fill="url(#paint1_linear_1_36840)"/>
<path d="M28.0165 28.7103C23.551 28.7103 22.3441 22.5552 15.4648 26.1759C17.4975 25.106 18.7272 24.4923 20.1717 23.7621C21.3344 23.1743 22.7387 22.3874 24.0337 22.1931C26.4475 21.831 28.7455 22.9752 29.8268 24.3655C30.6717 25.4517 31.0337 27.1414 29.586 28.457C29.1646 28.6333 28.646 28.7103 28.0165 28.7103Z" fill="url(#paint2_linear_1_36840)"/>
<path d="M5.20447 27.2247C4.07999 25.2901 5.56023 22.3662 7.87777 18.0897C7.39135 20.1693 9.10011 21.9944 11.104 21.2847L20.8526 17.9882C23.6234 17.0381 27.0529 17.4622 28.8873 19.2966C31.4228 21.8322 31.7695 25.439 30.7943 27.2622C30.2778 28.2277 29.5874 28.457 29.5874 28.457C29.5874 28.457 31.0357 27.2622 30.327 25.3311C29.3128 22.5672 25.0215 21.3484 22.0276 22.8954L11.97 27.9757C9.33936 29.2983 6.51766 29.4839 5.20447 27.2247Z" fill="url(#paint3_linear_1_36840)"/>
</g>
<defs>
<linearGradient id="paint0_linear_1_36840" x1="0" y1="0.365723" x2="36" y2="36.3657" gradientUnits="userSpaceOnUse">
<stop stop-color="#1F96FF"/>
<stop offset="1" stop-color="#0062F5"/>
</linearGradient>
<linearGradient id="paint1_linear_1_36840" x1="17.9983" y1="4.86572" x2="17.9983" y2="23.8657" gradientUnits="userSpaceOnUse">
<stop stop-color="#EBF4FF"/>
<stop offset="1" stop-color="#1F78FF"/>
</linearGradient>
<linearGradient id="paint2_linear_1_36840" x1="23.0158" y1="22.1255" x2="23.0158" y2="28.7103" gradientUnits="userSpaceOnUse">
<stop stop-color="#3385FF"/>
<stop offset="1" stop-color="#85BEFF"/>
</linearGradient>
<linearGradient id="paint3_linear_1_36840" x1="4.49708" y1="24.2585" x2="31.4377" y2="24.2585" gradientUnits="userSpaceOnUse">
<stop stop-color="#EBF4FF"/>
<stop offset="1" stop-color="#ADD3FF"/>
</linearGradient>
<clipPath id="clip0_1_36840">
<rect width="36" height="36" fill="white" transform="translate(0 0.365723)"/>
</clipPath>
</defs>
</svg>
