<svg width="24" height="25" viewBox="0 0 24 25" fill="none" xmlns="http://www.w3.org/2000/svg">
<path opacity="0.32" d="M12 1.33008C6.06294 1.33008 1.25 6.14302 1.25 12.0801C1.25 18.0172 6.06294 22.8301 12 22.8301C17.9371 22.8301 22.75 18.0172 22.75 12.0801C22.75 6.14302 17.9371 1.33008 12 1.33008Z" fill="#0A7CFF"/>
<path fill-rule="evenodd" clip-rule="evenodd" d="M17.0303 9.04975C17.3232 9.34264 17.3232 9.81752 17.0303 10.1104L11.5303 15.6104C11.3897 15.7511 11.1989 15.8301 11 15.8301C10.8011 15.8301 10.6103 15.7511 10.4697 15.6104L7.96967 13.1104C7.67678 12.8175 7.67678 12.3427 7.96967 12.0498C8.26256 11.7569 8.73744 11.7569 9.03033 12.0498L11 14.0194L15.9697 9.04975C16.2626 8.75686 16.7374 8.75686 17.0303 9.04975Z" fill="#0A7CFF"/>
</svg>
