<svg width="17" height="20" viewBox="0 0 17 20" fill="none" xmlns="http://www.w3.org/2000/svg">
<path d="M0.605469 11.4364C0.605469 15.8201 4.18719 19.327 8.60547 19.327C13.0238 19.327 16.6055 15.8201 16.6055 11.4364C16.6055 5.25752 11.6999 1.76669 9.57151 0.542927C9.30369 0.38892 9.16973 0.311917 9.02174 0.329469C8.90307 0.343532 8.77116 0.423534 8.70494 0.52157C8.62218 0.643953 8.63169 0.801213 8.65071 1.11574C8.82511 4.00239 9.30342 9.68295 6.31975 9.68295C4.40268 9.68295 4.0935 8.17532 4.04363 5.79241C4.03502 5.3814 4.03073 5.17589 3.91623 5.05372C3.82419 4.9555 3.66094 4.89835 3.5267 4.91735C3.35974 4.941 3.23745 5.08339 2.99286 5.36821C1.98403 6.54294 0.605469 8.65674 0.605469 11.4364Z" fill="white"/>
</svg>
