<svg width="61" height="61" viewBox="0 0 61 61" fill="none" xmlns="http://www.w3.org/2000/svg">
<g clip-path="url(#clip0_1_36859)">
<g clip-path="url(#clip1_1_36859)">
<path d="M47.2721 0.289062H13.9388C6.57501 0.289062 0.605469 6.2586 0.605469 13.6224V46.9557C0.605469 54.3195 6.57501 60.2891 13.9388 60.2891H47.2721C54.6359 60.2891 60.6055 54.3195 60.6055 46.9557V13.6224C60.6055 6.2586 54.6359 0.289062 47.2721 0.289062Z" fill="url(#paint0_linear_1_36859)"/>
<path fill-rule="evenodd" clip-rule="evenodd" d="M16.2522 25.1824C22.6118 13.5295 25.7916 7.70312 30.6066 7.70312C35.4216 7.70312 38.6014 13.5295 44.9609 25.1824C48.7068 32.0457 51.2728 36.7476 52.0686 40.2894H9.14453C9.94046 36.7476 12.5065 32.0457 16.2522 25.1824ZM25.2901 28.2364C27.6456 24.2027 28.8233 22.1859 30.6066 22.1859C32.3899 22.1859 33.5676 24.2027 35.9231 28.2364C38.1254 32.0081 39.2266 33.8939 38.3519 35.2812C37.4771 36.6687 35.1869 36.6687 30.6066 36.6687C26.0263 36.6687 23.7361 36.6687 22.8613 35.2812C21.9866 33.8939 23.0878 32.0081 25.2901 28.2364Z" fill="url(#paint1_linear_1_36859)"/>
<path d="M47.3023 47.5304C39.8598 47.5304 37.8483 37.2719 26.3828 43.3064C29.7706 41.5233 31.8201 40.5004 34.2276 39.2834C36.1655 38.3038 38.506 36.9923 40.6643 36.6684C44.6873 36.0649 48.5173 37.9719 50.3195 40.2891C51.7276 42.0994 52.331 44.9156 49.9181 47.1083C49.2158 47.4021 48.3515 47.5304 47.3023 47.5304Z" fill="url(#paint2_linear_1_36859)"/>
<path d="M9.27699 45.0536C7.40285 41.8293 9.86992 36.9561 13.7325 29.8286C12.9218 33.2946 15.7697 36.3365 19.1096 35.1536L35.3572 29.6595C39.9752 28.076 45.6911 28.7828 48.7484 31.8401C52.9742 36.0661 53.5521 42.0775 51.9267 45.1161C51.0659 46.7253 49.9152 47.1075 49.9152 47.1075C49.9152 47.1075 52.3291 45.1161 51.1479 41.8976C49.4576 37.2911 42.3054 35.2598 37.3156 37.8381L20.5529 46.3053C16.1685 48.5096 11.4656 48.819 9.27699 45.0536Z" fill="url(#paint3_linear_1_36859)"/>
</g>
</g>
<defs>
<linearGradient id="paint0_linear_1_36859" x1="0.605469" y1="0.289062" x2="60.6055" y2="60.2891" gradientUnits="userSpaceOnUse">
<stop stop-color="#1F96FF"/>
<stop offset="1" stop-color="#0062F5"/>
</linearGradient>
<linearGradient id="paint1_linear_1_36859" x1="30.6066" y1="7.78939" x2="30.6066" y2="39.4561" gradientUnits="userSpaceOnUse">
<stop stop-color="#EBF4FF"/>
<stop offset="1" stop-color="#1F78FF"/>
</linearGradient>
<linearGradient id="paint2_linear_1_36859" x1="38.9678" y1="36.5558" x2="38.9678" y2="47.5304" gradientUnits="userSpaceOnUse">
<stop stop-color="#3385FF"/>
<stop offset="1" stop-color="#85BEFF"/>
</linearGradient>
<linearGradient id="paint3_linear_1_36859" x1="8.098" y1="40.11" x2="52.9991" y2="40.11" gradientUnits="userSpaceOnUse">
<stop stop-color="#EBF4FF"/>
<stop offset="1" stop-color="#ADD3FF"/>
</linearGradient>
<clipPath id="clip0_1_36859">
<rect width="60" height="60" fill="white" transform="translate(0.605469 0.289062)"/>
</clipPath>
<clipPath id="clip1_1_36859">
<rect width="60" height="60" fill="white" transform="translate(0.605469 0.289062)"/>
</clipPath>
</defs>
</svg>
