<svg width="262" height="263" viewBox="0 0 262 263" fill="none" xmlns="http://www.w3.org/2000/svg">
<g clip-path="url(#clip0_1_36071)">
<mask id="mask0_1_36071" style="mask-type:luminance" maskUnits="userSpaceOnUse" x="0" y="0" width="262" height="263">
<path d="M262 0.27002H0V262.27H262V0.27002Z" fill="white"/>
</mask>
<g mask="url(#mask0_1_36071)">
<path fill-rule="evenodd" clip-rule="evenodd" d="M141.997 119.695L131 130.691L120.004 119.695C122.86 116.981 126.718 115.314 130.966 115.304H131.034C135.282 115.314 139.141 116.981 141.997 119.695ZM142.575 119.116C140.78 117.406 138.606 116.088 136.193 115.304H146.388L142.575 119.116ZM142.575 120.274L131.579 131.27L142.575 142.266C145.277 139.423 146.943 135.584 146.966 131.357V131.182C146.943 126.955 145.277 123.117 142.575 120.274ZM141.997 142.845L131 131.849L120.004 142.845C122.867 145.566 126.739 147.236 131 147.236C135.262 147.236 139.133 145.565 141.997 142.845ZM119.425 142.266L130.422 131.27L119.425 120.273C116.704 123.137 115.035 127.008 115.035 131.27C115.035 135.532 116.704 139.403 119.425 142.266ZM119.425 119.116C121.22 117.406 123.394 116.088 125.807 115.304H115.614L119.425 119.116ZM115.035 115.883L118.846 119.694C117.136 121.49 115.818 123.664 115.035 126.078V115.883ZM114.216 113.906V85.523C107.645 87.9345 101.738 91.7213 96.8438 96.5344L114.216 113.906ZM96.2649 97.1133L113.638 114.486H85.2531C87.6647 107.915 91.4516 102.008 96.2649 97.1133ZM96.2649 95.9554C101.312 90.9903 107.419 87.099 114.216 84.6517V82.5543H82.8638L96.2649 95.9554ZM82.2843 83.1328L95.6859 96.5344C90.7206 101.582 86.8291 107.689 84.3818 114.486H82.2843V83.1328ZM81.4656 81.1561V49.8043H50.9466C50.8066 49.942 50.667 50.0799 50.5277 50.2182L81.4656 81.1561ZM49.9487 50.7972L80.8871 81.7356H49.5343V51.2167C49.6721 51.0765 49.8102 50.9367 49.9487 50.7972ZM48.7156 48.4061L0.289882 -0.0195312L-0.289062 0.559412L48.1371 48.9856H-9.00924e-05L-9.0152e-05 49.8043H48.7156V50.8824C39.9403 59.8634 32.6232 70.2754 27.1473 81.7356H-9.07183e-05L-9.06885e-05 82.5543H26.7601C22.1022 92.5041 18.8269 103.23 17.1815 114.486H-9.12845e-05L-9.12547e-05 115.304H17.0647C16.3403 120.523 15.9658 125.852 15.9658 131.27C15.9658 136.687 16.3403 142.017 17.0648 147.236H-9.18806e-05L-9.18508e-05 148.054H17.1815C18.8269 159.31 22.1022 170.036 26.7601 179.986H-9.24468e-05L-9.2417e-05 180.804H27.1473C32.6233 192.265 39.9403 202.676 48.7156 211.658V212.736H-8.91984e-05L-8.91387e-05 213.554H48.1371L-0.289062 261.98L0.289882 262.56L48.7156 214.134V262.27H49.5343V213.554H50.6123C59.5934 222.329 70.0054 229.647 81.4656 235.122V262.27H82.2843V235.51C92.234 240.168 102.96 243.443 114.216 245.089V262.27H115.035V245.205C120.252 245.93 125.582 246.304 131 246.304C136.417 246.304 141.747 245.93 146.966 245.205V262.27H147.785V245.089C159.039 243.443 169.766 240.168 179.716 235.51V262.27H180.535V235.122C191.995 229.647 202.406 222.329 211.388 213.554H212.466V262.27H213.285V214.133L261.711 262.56L262.29 261.98L213.864 213.554H262V212.736H213.285V211.658C222.059 202.677 229.377 192.265 234.852 180.804H262V179.986H235.24C239.898 170.036 243.173 159.31 244.819 148.054H262V147.236H244.935C245.66 142.017 246.035 136.687 246.035 131.27C246.035 125.852 245.66 120.522 244.935 115.304H262V114.486H244.819C243.173 103.23 239.898 92.5041 235.24 82.5543H262V81.7356H234.853C229.377 70.2752 222.059 59.863 213.285 50.8818V49.8043H262V48.9856H213.864L262.29 0.559412L261.711 -0.0195312L213.285 48.4071V0.269928L212.466 0.269928V48.9856H211.388C202.406 40.2101 191.995 32.8931 180.535 27.417V0.269945L179.716 0.269945V27.0298C169.766 22.3719 159.039 19.0966 147.785 17.4512V0.269946L146.966 0.269946V17.3345C141.747 16.6101 136.417 16.2356 131 16.2356C125.582 16.2356 120.252 16.6101 115.035 17.3347V0.269947L114.216 0.269947V17.4513C102.96 19.0967 92.234 22.372 82.2843 27.03V0.269949L81.4656 0.269949V27.4172C70.0053 32.8933 59.5934 40.2103 50.6123 48.9856H49.5343V0.26995L48.7156 0.26995V48.4061ZM211.473 50.2185C211.334 50.08 211.194 49.942 211.053 49.8043H180.535V81.1571L211.473 50.2185ZM179.138 82.5543H147.785V84.6515C154.581 87.0988 160.688 90.9903 165.736 95.9556L179.138 82.5543ZM166.315 96.5346L179.716 83.1338V114.486H177.619C175.172 107.689 171.28 101.582 166.315 96.5346ZM165.156 96.5347C160.262 91.7213 154.355 87.9344 147.785 85.5228V113.907L165.156 96.5347ZM148.364 114.486L165.736 97.1137C170.549 102.008 174.336 107.915 176.747 114.486H148.364ZM146.966 115.884V126.076C146.181 123.663 144.865 121.49 143.155 119.695L146.966 115.884ZM181.114 81.7356L212.052 50.7974C212.19 50.9367 212.328 51.0763 212.466 51.2162V81.7356H181.114ZM212.052 211.743C212.19 211.603 212.328 211.464 212.466 211.323V180.804H181.114L212.052 211.743ZM179.716 179.406V148.054H177.619C175.172 154.851 171.28 160.958 166.315 166.006L179.716 179.406ZM165.736 166.584L179.138 179.986H147.785V177.889C154.581 175.441 160.688 171.549 165.736 166.584ZM165.736 165.426C170.549 160.532 174.336 154.625 176.747 148.054H148.364L165.736 165.426ZM147.785 148.633L165.156 166.006C160.262 170.819 154.355 174.605 147.785 177.017V148.633ZM146.388 147.236H136.193C138.606 146.451 140.78 145.135 142.575 143.424L146.388 147.236ZM146.966 146.656L143.155 142.845C144.865 141.05 146.181 138.877 146.966 136.464V146.656ZM180.535 181.383L211.473 212.321C211.334 212.459 211.194 212.598 211.053 212.736H180.535V181.383ZM50.5277 212.321C50.667 212.46 50.8067 212.598 50.9467 212.736H81.4656V181.384L50.5277 212.321ZM82.8637 179.986H114.216V177.889C107.419 175.441 101.312 171.549 96.2649 166.585L82.8637 179.986ZM95.6859 166.006L82.2843 179.407V148.054H84.3818C86.8292 154.851 90.7206 160.958 95.6859 166.006ZM96.8438 166.006C101.738 170.819 107.645 174.605 114.216 177.017V148.634L96.8438 166.006ZM113.638 148.054L96.2649 165.426C91.4516 160.532 87.6647 154.625 85.2532 148.054H113.638ZM115.035 146.657V136.462C115.818 138.876 117.136 141.05 118.846 142.845L115.035 146.657ZM115.614 147.236L119.425 143.424C121.22 145.135 123.394 146.451 125.807 147.236H115.614ZM80.887 180.804L49.9487 211.743C49.8102 211.603 49.6721 211.464 49.5343 211.323V180.804H80.887ZM28.0557 81.7356C33.3507 70.7513 40.3519 60.7444 48.7156 52.0583V81.7356H28.0557ZM27.665 82.5543H48.7156V114.486H18.0091C19.6678 103.223 22.9702 92.4955 27.665 82.5543ZM49.5343 82.5543V114.486H81.4656V82.5543H49.5343ZM17.8916 115.304H48.7156V147.236H17.8916C17.1619 142.018 16.7845 136.688 16.7845 131.27C16.7845 125.852 17.1619 120.522 17.8916 115.304ZM49.5343 115.304V147.236H81.4656V115.304H49.5343ZM18.0091 148.054H48.7156V179.986H27.6651C22.9703 170.044 19.6678 159.317 18.0091 148.054ZM49.5343 148.054V179.986H81.4656V148.054H49.5343ZM28.0557 180.804H48.7156V210.482C40.3519 201.795 33.3507 191.789 28.0557 180.804ZM51.7882 213.554H81.4656V234.215C70.4813 228.919 60.4743 221.918 51.7882 213.554ZM82.2843 213.554V234.604C92.2255 239.3 102.953 242.603 114.216 244.261V213.554H82.2843ZM131 245.486C125.582 245.486 120.252 245.108 115.035 244.378V213.554H146.966V244.378C141.748 245.108 136.418 245.486 131 245.486ZM146.966 212.736H115.035V180.804H131H146.966V212.736ZM121.984 179.986H115.035V178.175C117.282 178.94 119.603 179.548 121.984 179.986ZM131 179.986C125.408 179.986 120.036 179.043 115.035 177.309V148.054H131H146.966V177.309C141.964 179.043 136.592 179.986 131 179.986ZM114.216 147.236V115.304H84.961C83.2267 120.306 82.2845 125.678 82.2845 131.27C82.2845 136.862 83.2267 142.234 84.961 147.236H114.216ZM130.965 114.486H115.035V85.2308C120.021 83.5019 125.374 82.5602 130.948 82.5543H131.052C136.625 82.5602 141.98 83.5018 146.966 85.2307V114.486H131.035H131H130.965ZM121.983 82.5543C119.603 82.9921 117.282 83.6 115.035 84.3649V82.5543H121.983ZM130.948 81.7356H115.035V49.8043H146.966V81.7356H131.052H131H130.948ZM114.216 81.7356V49.8043H82.2843V81.7356H114.216ZM146.966 48.9856H115.035V18.1614C120.252 17.4316 125.582 17.0543 131 17.0543C136.418 17.0543 141.748 17.4316 146.966 18.1613V48.9856ZM114.216 48.9856V18.2789C102.953 19.9376 92.2254 23.2401 82.2843 27.9349V48.9856H114.216ZM51.7882 48.9856C60.4743 40.6219 70.4813 33.6206 81.4656 28.3257V48.9856H51.7882ZM147.785 48.9856V18.2789C159.046 19.9375 169.774 23.2399 179.716 27.9347V48.9856H147.785ZM180.535 48.9856V28.3253C191.519 33.6204 201.526 40.6218 210.212 48.9856H180.535ZM147.785 49.8043H179.716V81.7356H147.785V49.8043ZM180.535 82.5543V114.486H212.466V82.5543H180.535ZM177.905 115.304H179.716V122.252C179.278 119.872 178.67 117.552 177.905 115.304ZM180.535 115.304V131.11V131.27V131.429V147.236H212.466V115.304H180.535ZM179.716 131.426V131.115C179.698 125.579 178.758 120.26 177.039 115.304H147.785V131.18V131.27V131.359V147.236H177.039C178.758 142.28 179.698 136.961 179.716 131.426ZM140.017 179.986C142.397 179.548 144.717 178.94 146.966 178.175V179.986H140.017ZM147.785 212.736V180.804H179.716V212.736H147.785ZM213.285 210.482V180.804H233.945C228.649 191.789 221.648 201.796 213.285 210.482ZM213.285 148.054V179.986H234.336C239.03 170.044 242.333 159.316 243.991 148.054H213.285ZM212.466 179.986V148.054H180.535V179.986H212.466ZM244.108 147.236H213.285V115.304H244.108C244.838 120.522 245.216 125.852 245.216 131.27C245.216 136.688 244.838 142.018 244.108 147.236ZM243.991 114.486H213.285V82.5543H234.336C239.03 92.4955 242.333 103.223 243.991 114.486ZM233.945 81.7356H213.285V52.0577C221.648 60.744 228.649 70.7511 233.945 81.7356ZM147.785 213.554H179.716V234.606C169.774 239.3 159.046 242.603 147.785 244.261V213.554ZM180.535 213.554V234.215C191.519 228.919 201.526 221.918 210.212 213.554H180.535ZM177.905 147.236H179.716V140.289C179.278 142.668 178.67 144.988 177.905 147.236ZM146.966 82.5543V84.3648C144.717 83.5999 142.397 82.9921 140.018 82.5543H146.966ZM82.2843 122.255V115.304H84.0951C83.33 117.553 82.7221 119.874 82.2843 122.255ZM82.2843 147.236V140.286C82.7221 142.666 83.33 144.987 84.0951 147.236H82.2843ZM114.216 180.804H82.2843V212.736H114.216V180.804Z" fill="url(#paint0_radial_1_36071)"/>
</g>
<path d="M130.69 43.7661H131H131.31C146.361 43.7661 158.041 43.7665 167.368 44.6118C176.836 45.4698 184.427 47.2339 191.127 51.1017C199.45 55.9074 206.363 62.8194 211.168 71.1431C215.036 77.8424 216.8 85.4348 217.658 94.9023C218.504 104.229 218.504 115.909 218.504 130.96V131.27V131.58C218.504 146.631 218.504 158.311 217.658 167.638C216.8 177.106 215.036 184.698 211.168 191.397C206.363 199.721 199.45 206.633 191.127 211.438C184.427 215.307 176.836 217.07 167.368 217.929C158.042 218.774 146.361 218.774 131.31 218.774H131H130.69C115.639 218.774 103.959 218.774 94.6322 217.929C85.1647 217.07 77.5723 215.307 70.873 211.438C62.5493 206.633 55.6373 199.721 50.8317 191.397C46.9639 184.698 45.1998 177.106 44.3418 167.638C43.4965 158.311 43.496 146.631 43.4961 131.58V131.27V130.96C43.496 115.909 43.4965 104.229 44.3418 94.9023C45.1998 85.4348 46.9639 77.8424 50.8317 71.1431C55.6373 62.8194 62.5493 55.9074 70.873 51.1017C77.5723 47.2339 85.1647 45.4698 94.6322 44.6118C103.959 43.7665 115.639 43.7661 130.69 43.7661ZM95.6483 55.8236C86.9617 56.611 81.2022 58.1376 76.502 60.8513C69.8896 64.6689 64.3988 70.1597 60.5813 76.772C57.8675 81.4722 56.3409 87.2318 55.5536 95.9184C54.7592 104.682 54.7539 115.862 54.7539 131.27C54.7539 146.678 54.7592 157.858 55.5536 166.622C56.3409 175.309 57.8675 181.067 60.5813 185.768C64.3988 192.38 69.8896 197.871 76.502 201.689C81.2022 204.403 86.9617 205.929 95.6483 206.717C104.412 207.511 115.592 207.516 131 207.516C146.408 207.516 157.588 207.511 166.351 206.717C175.038 205.929 180.797 204.403 185.498 201.689C192.11 197.871 197.601 192.38 201.419 185.768C204.133 181.067 205.659 175.309 206.447 166.622C207.241 157.858 207.246 146.678 207.246 131.27C207.246 115.862 207.241 104.682 206.447 95.9184C205.659 87.2318 204.133 81.4722 201.419 76.772C197.601 70.1597 192.11 64.6689 185.498 60.8513C180.797 58.1376 175.038 56.611 166.351 55.8236C157.588 55.0293 146.408 55.0239 131 55.0239C115.592 55.0239 104.412 55.0293 95.6483 55.8236Z" fill="#00213E" stroke="#0B8DFF" stroke-width="1.02344" stroke-linecap="round" stroke-linejoin="round"/>
<mask id="mask1_1_36071" style="mask-type:alpha" maskUnits="userSpaceOnUse" x="42" y="43" width="178" height="177">
<path d="M130.69 43.7661H131H131.31C146.361 43.7661 158.041 43.7665 167.368 44.6118C176.836 45.4698 184.427 47.2339 191.127 51.1017C199.45 55.9074 206.363 62.8194 211.168 71.1431C215.036 77.8424 216.8 85.4348 217.658 94.9023C218.504 104.229 218.504 115.909 218.504 130.96V131.27V131.58C218.504 146.631 218.504 158.311 217.658 167.638C216.8 177.106 215.036 184.698 211.168 191.397C206.363 199.721 199.45 206.633 191.127 211.438C184.427 215.307 176.836 217.07 167.368 217.929C158.042 218.774 146.361 218.774 131.31 218.774H131H130.69C115.639 218.774 103.959 218.774 94.6322 217.929C85.1647 217.07 77.5723 215.307 70.873 211.438C62.5493 206.633 55.6373 199.721 50.8317 191.397C46.9639 184.698 45.1998 177.106 44.3418 167.638C43.4965 158.311 43.496 146.631 43.4961 131.58V131.27V130.96C43.496 115.909 43.4965 104.229 44.3418 94.9023C45.1998 85.4348 46.9639 77.8424 50.8317 71.1431C55.6373 62.8194 62.5493 55.9074 70.873 51.1017C77.5723 47.2339 85.1647 45.4698 94.6322 44.6118C103.959 43.7665 115.639 43.7661 130.69 43.7661ZM95.6483 55.8236C86.9617 56.611 81.2022 58.1376 76.502 60.8513C69.8896 64.6689 64.3988 70.1597 60.5813 76.772C57.8675 81.4722 56.3409 87.2318 55.5536 95.9184C54.7592 104.682 54.7539 115.862 54.7539 131.27C54.7539 146.678 54.7592 157.858 55.5536 166.622C56.3409 175.309 57.8675 181.067 60.5813 185.768C64.3988 192.38 69.8896 197.871 76.502 201.689C81.2022 204.403 86.9617 205.929 95.6483 206.717C104.412 207.511 115.592 207.516 131 207.516C146.408 207.516 157.588 207.511 166.351 206.717C175.038 205.929 180.797 204.403 185.498 201.689C192.11 197.871 197.601 192.38 201.419 185.768C204.133 181.067 205.659 175.309 206.447 166.622C207.241 157.858 207.246 146.678 207.246 131.27C207.246 115.862 207.241 104.682 206.447 95.9184C205.659 87.2318 204.133 81.4722 201.419 76.772C197.601 70.1597 192.11 64.6689 185.498 60.8513C180.797 58.1376 175.038 56.611 166.351 55.8236C157.588 55.0293 146.408 55.0239 131 55.0239C115.592 55.0239 104.412 55.0293 95.6483 55.8236Z" fill="#00213E" stroke="#0B8DFF" stroke-width="1.02344" stroke-linecap="round" stroke-linejoin="round"/>
</mask>
<g mask="url(#mask1_1_36071)">
<path opacity="0.48" d="M49.125 49.395L212.363 212.633" stroke="#33A0FF" stroke-width="245.625" stroke-dasharray="1.02 3.07"/>
</g>
<path d="M95.1797 59.6294C93.484 59.6294 92.1094 58.2548 92.1094 56.5591C92.1094 54.8634 93.484 53.4888 95.1797 53.4888C96.8754 53.4888 98.25 54.8634 98.25 56.5591C98.25 58.2548 96.8754 59.6294 95.1797 59.6294Z" fill="white" stroke="#33A0FF" stroke-width="1.02344"/>
<path d="M95.1797 47.3481C93.484 47.3481 92.1094 45.9735 92.1094 44.2778C92.1094 42.5821 93.484 41.2075 95.1797 41.2075C96.8754 41.2075 98.25 42.5821 98.25 44.2778C98.25 45.9735 96.8754 47.3481 95.1797 47.3481Z" fill="white" stroke="#33A0FF" stroke-width="1.02344"/>
<path d="M70.6172 53.4888C68.9215 53.4888 67.5469 52.1141 67.5469 50.4185C67.5469 48.7228 68.9215 47.3481 70.6172 47.3481C72.3129 47.3481 73.6875 48.7228 73.6875 50.4185C73.6875 52.1141 72.3129 53.4888 70.6172 53.4888Z" fill="white" stroke="#33A0FF" stroke-width="1.02344"/>
<path d="M50.1484 73.9575C48.4528 73.9575 47.0781 72.5829 47.0781 70.8872C47.0781 69.1915 48.4528 67.8169 50.1484 67.8169C51.8441 67.8169 53.2188 69.1915 53.2188 70.8872C53.2188 72.5829 51.8441 73.9575 50.1484 73.9575Z" fill="white" stroke="#33A0FF" stroke-width="1.02344"/>
<path d="M44.0078 98.52C42.3121 98.52 40.9375 97.1454 40.9375 95.4497C40.9375 93.754 42.3121 92.3794 44.0078 92.3794C45.7035 92.3794 47.0781 93.754 47.0781 95.4497C47.0781 97.1454 45.7035 98.52 44.0078 98.52Z" fill="white" stroke="#33A0FF" stroke-width="1.02344"/>
<path d="M42.9844 134.34C41.2887 134.34 39.9141 132.966 39.9141 131.27C39.9141 129.574 41.2887 128.2 42.9844 128.2C44.6801 128.2 46.0547 129.574 46.0547 131.27C46.0547 132.966 44.6801 134.34 42.9844 134.34Z" fill="white" stroke="#33A0FF" stroke-width="1.02344"/>
<path d="M55.2656 99.5435C53.5699 99.5435 52.1953 98.1688 52.1953 96.4731C52.1953 94.7775 53.5699 93.4028 55.2656 93.4028C56.9613 93.4028 58.3359 94.7775 58.3359 96.4731C58.3359 98.1688 56.9613 99.5435 55.2656 99.5435Z" fill="white" stroke="#33A0FF" stroke-width="1.02344"/>
<path d="M55.2656 134.34C53.5699 134.34 52.1953 132.966 52.1953 131.27C52.1953 129.574 53.5699 128.2 55.2656 128.2C56.9613 128.2 58.3359 129.574 58.3359 131.27C58.3359 132.966 56.9613 134.34 55.2656 134.34Z" fill="white" stroke="#33A0FF" stroke-width="1.02344"/>
<path d="M61.4062 80.0981C59.7106 80.0981 58.3359 78.7235 58.3359 77.0278C58.3359 75.3321 59.7106 73.9575 61.4062 73.9575C63.1019 73.9575 64.4766 75.3321 64.4766 77.0278C64.4766 78.7235 63.1019 80.0981 61.4062 80.0981Z" fill="white" stroke="#33A0FF" stroke-width="1.02344"/>
<path d="M76.7578 64.7466C75.0621 64.7466 73.6875 63.372 73.6875 61.6763C73.6875 59.9806 75.0621 58.606 76.7578 58.606C78.4535 58.606 79.8281 59.9806 79.8281 61.6763C79.8281 63.372 78.4535 64.7466 76.7578 64.7466Z" fill="white" stroke="#33A0FF" stroke-width="1.02344"/>
<path d="M131 40.1841C129.304 40.1841 127.93 41.5587 127.93 43.2544C127.93 44.9501 129.304 46.3247 131 46.3247C132.696 46.3247 134.07 44.9501 134.07 43.2544C134.07 41.5587 132.696 40.1841 131 40.1841Z" fill="white" stroke="#33A0FF" stroke-width="1.02344"/>
<path d="M131 52.4653C129.304 52.4653 127.93 53.84 127.93 55.5356C127.93 57.2313 129.304 58.606 131 58.606C132.696 58.606 134.07 57.2313 134.07 55.5356C134.07 53.84 132.696 52.4653 131 52.4653Z" fill="white" stroke="#33A0FF" stroke-width="1.02344"/>
<path d="M95.1797 202.911C93.484 202.911 92.1094 204.285 92.1094 205.981C92.1094 207.677 93.484 209.051 95.1797 209.051C96.8754 209.051 98.25 207.677 98.25 205.981C98.25 204.285 96.8754 202.911 95.1797 202.911Z" fill="white" stroke="#33A0FF" stroke-width="1.02344"/>
<path d="M95.1797 215.192C93.484 215.192 92.1094 216.567 92.1094 218.262C92.1094 219.958 93.484 221.333 95.1797 221.333C96.8754 221.333 98.25 219.958 98.25 218.262C98.25 216.567 96.8754 215.192 95.1797 215.192Z" fill="white" stroke="#33A0FF" stroke-width="1.02344"/>
<path d="M70.6172 209.051C68.9215 209.051 67.5469 210.426 67.5469 212.122C67.5469 213.817 68.9215 215.192 70.6172 215.192C72.3129 215.192 73.6875 213.817 73.6875 212.122C73.6875 210.426 72.3129 209.051 70.6172 209.051Z" fill="white" stroke="#33A0FF" stroke-width="1.02344"/>
<path d="M50.1484 188.583C48.4528 188.583 47.0781 189.957 47.0781 191.653C47.0781 193.349 48.4528 194.723 50.1484 194.723C51.8441 194.723 53.2188 193.349 53.2188 191.653C53.2188 189.957 51.8441 188.583 50.1484 188.583Z" fill="white" stroke="#33A0FF" stroke-width="1.02344"/>
<path d="M44.0078 164.02C42.3121 164.02 40.9375 165.395 40.9375 167.09C40.9375 168.786 42.3121 170.161 44.0078 170.161C45.7035 170.161 47.0781 168.786 47.0781 167.09C47.0781 165.395 45.7035 164.02 44.0078 164.02Z" fill="white" stroke="#33A0FF" stroke-width="1.02344"/>
<path d="M42.9844 128.2C41.2887 128.2 39.9141 129.574 39.9141 131.27C39.9141 132.966 41.2887 134.34 42.9844 134.34C44.6801 134.34 46.0547 132.966 46.0547 131.27C46.0547 129.574 44.6801 128.2 42.9844 128.2Z" fill="white" stroke="#33A0FF" stroke-width="1.02344"/>
<path d="M55.2656 162.997C53.5699 162.997 52.1953 164.371 52.1953 166.067C52.1953 167.763 53.5699 169.137 55.2656 169.137C56.9613 169.137 58.3359 167.763 58.3359 166.067C58.3359 164.371 56.9613 162.997 55.2656 162.997Z" fill="white" stroke="#33A0FF" stroke-width="1.02344"/>
<path d="M55.2656 128.2C53.5699 128.2 52.1953 129.574 52.1953 131.27C52.1953 132.966 53.5699 134.34 55.2656 134.34C56.9613 134.34 58.3359 132.966 58.3359 131.27C58.3359 129.574 56.9613 128.2 55.2656 128.2Z" fill="white" stroke="#33A0FF" stroke-width="1.02344"/>
<path d="M61.4062 182.442C59.7106 182.442 58.3359 183.817 58.3359 185.512C58.3359 187.208 59.7106 188.583 61.4062 188.583C63.1019 188.583 64.4766 187.208 64.4766 185.512C64.4766 183.817 63.1019 182.442 61.4062 182.442Z" fill="white" stroke="#33A0FF" stroke-width="1.02344"/>
<path d="M76.7578 197.793C75.0621 197.793 73.6875 199.168 73.6875 200.864C73.6875 202.559 75.0621 203.934 76.7578 203.934C78.4535 203.934 79.8281 202.559 79.8281 200.864C79.8281 199.168 78.4535 197.793 76.7578 197.793Z" fill="white" stroke="#33A0FF" stroke-width="1.02344"/>
<path d="M131 222.356C129.304 222.356 127.93 220.981 127.93 219.286C127.93 217.59 129.304 216.215 131 216.215C132.696 216.215 134.07 217.59 134.07 219.286C134.07 220.981 132.696 222.356 131 222.356Z" fill="white" stroke="#33A0FF" stroke-width="1.02344"/>
<path d="M131 210.075C129.304 210.075 127.93 208.7 127.93 207.004C127.93 205.309 129.304 203.934 131 203.934C132.696 203.934 134.07 205.309 134.07 207.004C134.07 208.7 132.696 210.075 131 210.075Z" fill="white" stroke="#33A0FF" stroke-width="1.02344"/>
<path d="M166.82 202.911C168.516 202.911 169.891 204.285 169.891 205.981C169.891 207.677 168.516 209.051 166.82 209.051C165.125 209.051 163.75 207.677 163.75 205.981C163.75 204.285 165.125 202.911 166.82 202.911Z" fill="white" stroke="#33A0FF" stroke-width="1.02344"/>
<path d="M166.82 215.192C168.516 215.192 169.891 216.567 169.891 218.262C169.891 219.958 168.516 221.333 166.82 221.333C165.125 221.333 163.75 219.958 163.75 218.262C163.75 216.567 165.125 215.192 166.82 215.192Z" fill="white" stroke="#33A0FF" stroke-width="1.02344"/>
<path d="M191.383 209.051C193.078 209.051 194.453 210.426 194.453 212.122C194.453 213.817 193.078 215.192 191.383 215.192C189.687 215.192 188.312 213.817 188.312 212.122C188.312 210.426 189.687 209.051 191.383 209.051Z" fill="white" stroke="#33A0FF" stroke-width="1.02344"/>
<path d="M211.852 188.583C213.547 188.583 214.922 189.957 214.922 191.653C214.922 193.349 213.547 194.723 211.852 194.723C210.156 194.723 208.781 193.349 208.781 191.653C208.781 189.957 210.156 188.583 211.852 188.583Z" fill="white" stroke="#33A0FF" stroke-width="1.02344"/>
<path d="M217.992 164.02C219.688 164.02 221.062 165.395 221.062 167.09C221.062 168.786 219.688 170.161 217.992 170.161C216.297 170.161 214.922 168.786 214.922 167.09C214.922 165.395 216.297 164.02 217.992 164.02Z" fill="white" stroke="#33A0FF" stroke-width="1.02344"/>
<path d="M219.016 128.2C220.711 128.2 222.086 129.574 222.086 131.27C222.086 132.966 220.711 134.34 219.016 134.34C217.32 134.34 215.945 132.966 215.945 131.27C215.945 129.574 217.32 128.2 219.016 128.2Z" fill="white" stroke="#33A0FF" stroke-width="1.02344"/>
<path d="M206.734 162.997C208.43 162.997 209.805 164.371 209.805 166.067C209.805 167.763 208.43 169.137 206.734 169.137C205.039 169.137 203.664 167.763 203.664 166.067C203.664 164.371 205.039 162.997 206.734 162.997Z" fill="white" stroke="#33A0FF" stroke-width="1.02344"/>
<path d="M206.734 128.2C208.43 128.2 209.805 129.574 209.805 131.27C209.805 132.966 208.43 134.34 206.734 134.34C205.039 134.34 203.664 132.966 203.664 131.27C203.664 129.574 205.039 128.2 206.734 128.2Z" fill="white" stroke="#33A0FF" stroke-width="1.02344"/>
<path d="M200.594 182.442C202.289 182.442 203.664 183.817 203.664 185.512C203.664 187.208 202.289 188.583 200.594 188.583C198.898 188.583 197.523 187.208 197.523 185.512C197.523 183.817 198.898 182.442 200.594 182.442Z" fill="white" stroke="#33A0FF" stroke-width="1.02344"/>
<path d="M185.242 197.793C186.938 197.793 188.312 199.168 188.312 200.864C188.312 202.559 186.938 203.934 185.242 203.934C183.547 203.934 182.172 202.559 182.172 200.864C182.172 199.168 183.547 197.793 185.242 197.793Z" fill="white" stroke="#33A0FF" stroke-width="1.02344"/>
<path d="M131 222.356C132.696 222.356 134.07 220.981 134.07 219.286C134.07 217.59 132.696 216.215 131 216.215C129.304 216.215 127.93 217.59 127.93 219.286C127.93 220.981 129.304 222.356 131 222.356Z" fill="white" stroke="#33A0FF" stroke-width="1.02344"/>
<path d="M131 210.075C132.696 210.075 134.07 208.7 134.07 207.004C134.07 205.309 132.696 203.934 131 203.934C129.304 203.934 127.93 205.309 127.93 207.004C127.93 208.7 129.304 210.075 131 210.075Z" fill="white" stroke="#33A0FF" stroke-width="1.02344"/>
<path d="M166.82 59.6294C168.516 59.6294 169.891 58.2548 169.891 56.5591C169.891 54.8634 168.516 53.4888 166.82 53.4888C165.125 53.4888 163.75 54.8634 163.75 56.5591C163.75 58.2548 165.125 59.6294 166.82 59.6294Z" fill="white" stroke="#33A0FF" stroke-width="1.02344"/>
<path d="M166.82 47.3481C168.516 47.3481 169.891 45.9735 169.891 44.2778C169.891 42.5821 168.516 41.2075 166.82 41.2075C165.125 41.2075 163.75 42.5821 163.75 44.2778C163.75 45.9735 165.125 47.3481 166.82 47.3481Z" fill="white" stroke="#33A0FF" stroke-width="1.02344"/>
<path d="M191.383 53.4888C193.078 53.4888 194.453 52.1141 194.453 50.4185C194.453 48.7228 193.078 47.3481 191.383 47.3481C189.687 47.3481 188.312 48.7228 188.312 50.4185C188.312 52.1141 189.687 53.4888 191.383 53.4888Z" fill="white" stroke="#33A0FF" stroke-width="1.02344"/>
<path d="M211.852 73.9575C213.547 73.9575 214.922 72.5829 214.922 70.8872C214.922 69.1915 213.547 67.8169 211.852 67.8169C210.156 67.8169 208.781 69.1915 208.781 70.8872C208.781 72.5829 210.156 73.9575 211.852 73.9575Z" fill="white" stroke="#33A0FF" stroke-width="1.02344"/>
<path d="M217.992 98.52C219.688 98.52 221.062 97.1454 221.062 95.4497C221.062 93.754 219.688 92.3794 217.992 92.3794C216.297 92.3794 214.922 93.754 214.922 95.4497C214.922 97.1454 216.297 98.52 217.992 98.52Z" fill="white" stroke="#33A0FF" stroke-width="1.02344"/>
<path d="M219.016 134.34C220.711 134.34 222.086 132.966 222.086 131.27C222.086 129.574 220.711 128.2 219.016 128.2C217.32 128.2 215.945 129.574 215.945 131.27C215.945 132.966 217.32 134.34 219.016 134.34Z" fill="white" stroke="#33A0FF" stroke-width="1.02344"/>
<path d="M206.734 99.5435C208.43 99.5435 209.805 98.1688 209.805 96.4731C209.805 94.7775 208.43 93.4028 206.734 93.4028C205.039 93.4028 203.664 94.7775 203.664 96.4731C203.664 98.1688 205.039 99.5435 206.734 99.5435Z" fill="white" stroke="#33A0FF" stroke-width="1.02344"/>
<path d="M206.734 134.34C208.43 134.34 209.805 132.966 209.805 131.27C209.805 129.574 208.43 128.2 206.734 128.2C205.039 128.2 203.664 129.574 203.664 131.27C203.664 132.966 205.039 134.34 206.734 134.34Z" fill="white" stroke="#33A0FF" stroke-width="1.02344"/>
<path d="M200.594 80.0981C202.289 80.0981 203.664 78.7235 203.664 77.0278C203.664 75.3321 202.289 73.9575 200.594 73.9575C198.898 73.9575 197.523 75.3321 197.523 77.0278C197.523 78.7235 198.898 80.0981 200.594 80.0981Z" fill="white" stroke="#33A0FF" stroke-width="1.02344"/>
<path d="M185.242 64.7466C186.938 64.7466 188.312 63.372 188.312 61.6763C188.312 59.9806 186.938 58.606 185.242 58.606C183.547 58.606 182.172 59.9806 182.172 61.6763C182.172 63.372 183.547 64.7466 185.242 64.7466Z" fill="white" stroke="#33A0FF" stroke-width="1.02344"/>
<path d="M131 40.1841C132.696 40.1841 134.07 41.5587 134.07 43.2544C134.07 44.9501 132.696 46.3247 131 46.3247C129.304 46.3247 127.93 44.9501 127.93 43.2544C127.93 41.5587 129.304 40.1841 131 40.1841Z" fill="white" stroke="#33A0FF" stroke-width="1.02344"/>
<path d="M131 52.4653C132.696 52.4653 134.07 53.84 134.07 55.5356C134.07 57.2313 132.696 58.606 131 58.606C129.304 58.606 127.93 57.2313 127.93 55.5356C127.93 53.84 129.304 52.4653 131 52.4653Z" fill="white" stroke="#33A0FF" stroke-width="1.02344"/>
</g>
<defs>
<radialGradient id="paint0_radial_1_36071" cx="0" cy="0" r="1" gradientUnits="userSpaceOnUse" gradientTransform="translate(131 131.27) rotate(90) scale(131.29 131.29)">
<stop offset="0.901042" stop-color="#D6E9FF" stop-opacity="0.12"/>
<stop offset="1" stop-color="#D6E9FF" stop-opacity="0"/>
</radialGradient>
<clipPath id="clip0_1_36071">
<rect width="262" height="262" fill="white" transform="translate(0 0.27002)"/>
</clipPath>
</defs>
</svg>
