<svg width="262" height="263" viewBox="0 0 262 263" fill="none" xmlns="http://www.w3.org/2000/svg">
<g clip-path="url(#clip0_1_36020)">
<mask id="mask0_1_36020" style="mask-type:luminance" maskUnits="userSpaceOnUse" x="0" y="0" width="262" height="263">
<path d="M262 0.27002H0V262.27H262V0.27002Z" fill="white"/>
</mask>
<g mask="url(#mask0_1_36020)">
<path fill-rule="evenodd" clip-rule="evenodd" d="M141.997 119.695L131 130.691L120.004 119.695C122.86 116.981 126.718 115.314 130.966 115.304H131.034C135.282 115.314 139.141 116.981 141.997 119.695ZM142.575 119.116C140.78 117.406 138.606 116.088 136.193 115.304H146.388L142.575 119.116ZM142.575 120.274L131.579 131.27L142.575 142.266C145.27 139.431 146.933 135.607 146.966 131.396V131.144C146.933 126.933 145.27 123.109 142.575 120.274ZM141.997 142.845L131 131.849L120.004 142.845C122.867 145.566 126.739 147.236 131 147.236C135.262 147.236 139.133 145.565 141.997 142.845ZM119.425 142.266L130.422 131.27L119.425 120.273C116.704 123.137 115.035 127.008 115.035 131.27C115.035 135.532 116.704 139.403 119.425 142.266ZM119.425 119.116C121.22 117.406 123.394 116.088 125.807 115.304H115.614L119.425 119.116ZM115.035 115.883L118.846 119.694C117.136 121.49 115.818 123.664 115.035 126.078V115.883ZM114.216 113.905V85.5231C107.644 87.9346 101.738 91.7214 96.8438 96.5344L114.216 113.905ZM96.2649 97.1133L113.638 114.486H85.2531C87.6647 107.915 91.4516 102.008 96.2649 97.1133ZM96.2649 95.9554C101.312 90.9903 107.419 87.0991 114.216 84.6517V82.5543H82.8638L96.2649 95.9554ZM82.284 83.1325L95.6859 96.5344C90.7206 101.582 86.8291 107.689 84.3818 114.486H82.284V83.1325ZM81.4653 81.1559V49.8043H50.9466C50.8066 49.942 50.667 50.0799 50.5277 50.2182L81.4653 81.1559ZM49.9487 50.7972L80.8871 81.7356H49.534V51.2169C49.6719 51.0767 49.8101 50.9368 49.9487 50.7972ZM48.7153 48.4059L0.289882 -0.0195312L-0.289062 0.559412L48.1371 48.9856H-0.000339955L-0.000340015 49.8043H48.7153V50.8826C39.9401 59.8636 32.6232 70.2755 27.1473 81.7356H-0.000340581L-0.000340551 82.5543H26.7601C22.1022 92.5041 18.8269 103.23 17.1815 114.486H-0.000341147L-0.000341117 115.304H17.0647C16.3403 120.523 15.9658 125.852 15.9658 131.27C15.9658 136.687 16.3403 142.017 17.0648 147.236H-0.000341743L-0.000341713 148.054H17.1815C18.8269 159.31 22.1022 170.036 26.7601 179.986H-0.000342309L-0.00034228 180.804H27.1473C32.6232 192.265 39.9402 202.676 48.7153 211.657V212.736H-0.000339061L-0.000339001 213.554H48.1371L-0.289062 261.98L0.289882 262.56L48.7153 214.134L48.7154 262.27H49.5341V213.554H50.6123C59.5933 222.329 70.0052 229.647 81.4653 235.122L81.4654 262.27H82.2841L82.284 235.51C92.2338 240.168 102.96 243.443 114.216 245.089V262.27H115.035V245.205C120.252 245.93 125.582 246.304 131 246.304C136.417 246.304 141.747 245.93 146.966 245.205V262.27H147.785V245.089C159.039 243.443 169.766 240.168 179.716 235.51V262.27H180.535V235.123C191.995 229.647 202.406 222.329 211.388 213.554H212.466V262.27H213.285V214.133L261.711 262.56L262.29 261.98L213.864 213.554H262V212.736H213.285V211.658C222.059 202.677 229.377 192.265 234.852 180.804H261.999V179.986H235.24C239.898 170.036 243.173 159.31 244.819 148.054H261.999V147.236H244.935C245.66 142.017 246.035 136.687 246.035 131.27C246.035 125.852 245.66 120.522 244.935 115.304H262V114.486H244.819C243.173 103.23 239.898 92.5041 235.24 82.5543H262V81.7356H234.853C229.377 70.2751 222.059 59.8628 213.284 50.8816V49.8043H262V48.9856H213.864L262.29 0.559412L261.711 -0.0195312L213.284 48.4074V0.269928L212.466 0.269928V48.9856H211.388C202.406 40.2101 191.995 32.8929 180.535 27.4168V0.269945L179.716 0.269945V27.0297C169.766 22.3718 159.039 19.0965 147.785 17.4512V0.269946L146.966 0.269946V17.3345C141.747 16.6101 136.417 16.2356 131 16.2356C125.582 16.2356 120.252 16.6101 115.035 17.3347V0.269947L114.216 0.269947V17.4513C102.96 19.0968 92.2338 22.3721 82.284 27.0301V0.269949L81.4653 0.269949V27.4174C70.0052 32.8934 59.5933 40.2103 50.6123 48.9856H49.534V0.26995L48.7153 0.26995V48.4059ZM211.473 50.2184C211.334 50.08 211.194 49.942 211.053 49.8043H180.535V81.1573L211.473 50.2184ZM179.138 82.5543H147.785V84.6514C154.581 87.0987 160.688 90.9902 165.736 95.9556L179.138 82.5543ZM166.315 96.5346L179.716 83.134V114.486H177.619C175.172 107.689 171.28 101.582 166.315 96.5346ZM165.156 96.5347C160.262 91.7212 154.355 87.9343 147.785 85.5228V113.907L165.156 96.5347ZM148.364 114.486L165.736 97.1135C170.549 102.008 174.336 107.915 176.747 114.486H148.364ZM146.966 115.884V126.075C146.181 123.663 144.865 121.489 143.155 119.695L146.966 115.884ZM181.114 81.7356L212.052 50.7974C212.19 50.9366 212.328 51.0761 212.466 51.2159V81.7356H181.114ZM212.052 211.743C212.19 211.604 212.328 211.464 212.466 211.324V180.804H181.114L212.052 211.743ZM179.716 179.405V148.054H177.619C175.172 154.851 171.28 160.958 166.315 166.006L179.716 179.405ZM165.736 166.584L179.138 179.986H147.785V177.889C154.581 175.442 160.688 171.549 165.736 166.584ZM165.736 165.426C170.549 160.532 174.336 154.625 176.747 148.054H148.364L165.736 165.426ZM147.785 148.633L165.156 166.006C160.262 170.819 154.355 174.605 147.785 177.017V148.633ZM146.388 147.236H136.193C138.606 146.451 140.78 145.135 142.575 143.424L146.388 147.236ZM146.966 146.655L143.155 142.845C144.865 141.05 146.181 138.877 146.966 136.464V146.655ZM180.535 181.383L211.473 212.321C211.334 212.459 211.194 212.598 211.053 212.736H180.535V181.383ZM50.5277 212.321C50.667 212.46 50.8067 212.598 50.9467 212.736H81.4653V181.384L50.5277 212.321ZM82.8637 179.986H114.216V177.889C107.419 175.441 101.312 171.549 96.2649 166.585L82.8637 179.986ZM95.6859 166.006L82.284 179.407V148.054H84.3818C86.8292 154.851 90.7206 160.958 95.6859 166.006ZM96.8438 166.006C101.738 170.819 107.644 174.605 114.216 177.017V148.634L96.8438 166.006ZM113.638 148.054L96.2649 165.426C91.4516 160.532 87.6647 154.625 85.2532 148.054H113.638ZM115.035 146.657V136.461C115.818 138.875 117.136 141.05 118.846 142.845L115.035 146.657ZM115.614 147.236L119.425 143.424C121.22 145.135 123.394 146.451 125.807 147.236H115.614ZM80.887 180.804L49.9487 211.743C49.8101 211.603 49.6719 211.464 49.534 211.323V180.804H80.887ZM28.0557 81.7356C33.3506 70.7515 40.3518 60.7446 48.7153 52.0586V81.7356H28.0557ZM27.665 82.5543H48.7153V114.486H18.0091C19.6678 103.223 22.9702 92.4955 27.665 82.5543ZM49.534 82.5543V114.486H81.4653V82.5543H49.534ZM17.8916 115.304H48.7153V147.236H17.8916C17.1619 142.018 16.7845 136.688 16.7845 131.27C16.7845 125.852 17.1619 120.522 17.8916 115.304ZM49.534 115.304V147.236H81.4653V115.304H49.534ZM18.0091 148.054H48.7153V179.986H27.6651C22.9703 170.044 19.6678 159.317 18.0091 148.054ZM49.534 148.054V179.986H81.4653V148.054H49.534ZM28.0557 180.804H48.7153V210.481C40.3518 201.795 33.3507 191.788 28.0557 180.804ZM51.7882 213.554H81.4653V234.215C70.4812 228.919 60.4743 221.918 51.7882 213.554ZM82.284 213.554V234.604C92.2252 239.3 102.953 242.603 114.216 244.261V213.554H82.284ZM131 245.486C125.582 245.486 120.251 245.108 115.035 244.378V213.554H146.966V244.378C141.748 245.108 136.418 245.486 131 245.486ZM146.966 212.736H115.035V180.804H131H146.966V212.736ZM121.984 179.986H115.035V178.175C117.282 178.94 119.603 179.548 121.984 179.986ZM131 179.986C125.408 179.986 120.036 179.043 115.035 177.309V148.054H131H146.966V177.309C141.963 179.043 136.592 179.986 131 179.986ZM114.216 147.236V115.304H84.961C83.2267 120.306 82.2845 125.678 82.2845 131.27C82.2845 136.862 83.2267 142.234 84.961 147.236H114.216ZM130.965 114.486H115.035V85.2309C120.021 83.5019 125.374 82.5602 130.948 82.5543H131.052C136.625 82.5602 141.98 83.5018 146.966 85.2306V114.486H131.035H131H130.965ZM121.983 82.5543C119.603 82.9922 117.282 83.6001 115.035 84.365V82.5543H121.983ZM130.948 81.7356H115.035V49.8043H146.966V81.7356H131.052H131H130.948ZM114.216 81.7356V49.8043H82.284V81.7356H114.216ZM146.966 48.9856H115.035V18.1614C120.251 17.4317 125.582 17.0543 131 17.0543C136.418 17.0543 141.748 17.4316 146.966 18.1613V48.9856ZM114.216 48.9856V18.279C102.953 19.9377 92.2252 23.2402 82.284 27.9351V48.9856H114.216ZM51.7882 48.9856C60.4742 40.6221 70.4811 33.6208 81.4653 28.3258V48.9856H51.7882ZM147.785 48.9856V18.2788C159.046 19.9374 169.774 23.2399 179.716 27.9346V48.9856H147.785ZM180.535 48.9856V28.3252C191.518 33.6203 201.526 40.6217 210.212 48.9856H180.535ZM147.785 49.8043H179.716V81.7356H147.785V49.8043ZM180.535 82.5543V114.486H212.466V82.5543H180.535ZM177.905 115.304H179.716V122.251C179.278 119.871 178.67 117.552 177.905 115.304ZM180.535 115.304V131.045C180.535 131.12 180.535 131.195 180.535 131.27C180.535 131.345 180.535 131.419 180.535 131.495V147.236H212.466V115.304H180.535ZM179.716 131.491V131.049C179.691 125.537 178.751 120.24 177.039 115.304H147.785V131.141C147.785 131.184 147.785 131.227 147.785 131.27C147.785 131.313 147.785 131.356 147.785 131.399V147.236H177.039C178.751 142.3 179.691 137.003 179.716 131.491ZM140.017 179.986C142.397 179.548 144.717 178.94 146.966 178.175V179.986H140.017ZM147.785 212.736V180.804H179.716V212.736H147.785ZM213.285 210.482V180.804H233.945C228.649 191.789 221.648 201.796 213.285 210.482ZM213.285 148.054V179.986H234.336C239.03 170.044 242.333 159.316 243.991 148.054H213.285ZM212.466 179.986V148.054H180.535V179.986H212.466ZM244.108 147.236H213.285V115.304H244.108C244.838 120.522 245.216 125.852 245.216 131.27C245.216 136.688 244.838 142.018 244.108 147.236ZM243.991 114.486H213.285V82.5543H234.336C239.03 92.4955 242.333 103.223 243.991 114.486ZM233.945 81.7356H213.285L213.284 52.0575C221.648 60.7438 228.649 70.751 233.945 81.7356ZM147.785 213.554H179.716V234.606C169.774 239.3 159.046 242.603 147.785 244.261V213.554ZM180.535 213.554V234.215C191.518 228.919 201.526 221.918 210.212 213.554H180.535ZM177.905 147.236H179.716V140.29C179.278 142.669 178.67 144.988 177.905 147.236ZM146.966 82.5543V84.3647C144.717 83.5999 142.397 82.9921 140.018 82.5543H146.966ZM82.284 122.256V115.304H84.0951C83.3299 117.553 82.7218 119.874 82.284 122.256ZM82.284 147.236V140.285C82.7218 142.665 83.3299 144.987 84.0951 147.236H82.284ZM114.216 180.804H82.284V212.736H114.216V180.804Z" fill="url(#paint0_radial_1_36020)"/>
</g>
<path d="M163.75 49.395H98.25C71.119 49.395 49.125 71.389 49.125 98.52V164.02C49.125 191.151 71.119 213.145 98.25 213.145H163.75C190.881 213.145 212.875 191.151 212.875 164.02V98.52C212.875 71.389 190.881 49.395 163.75 49.395Z" stroke="#2F384C" stroke-width="12.2812" stroke-linecap="round" stroke-linejoin="round"/>
<path d="M212.875 49.395H49.125V213.145H212.875V49.395Z" stroke="#33A0FF" stroke-width="1.02344" stroke-linecap="round"/>
<path d="M53.2188 49.395C53.2188 47.1341 51.3859 45.3013 49.125 45.3013C46.8641 45.3013 45.0312 47.1341 45.0312 49.395C45.0312 51.6559 46.8641 53.4888 49.125 53.4888C51.3859 53.4888 53.2188 51.6559 53.2188 49.395Z" fill="white"/>
<path d="M53.2188 213.145C53.2188 210.884 51.3859 209.051 49.125 209.051C46.8641 209.051 45.0312 210.884 45.0312 213.145C45.0312 215.406 46.8641 217.239 49.125 217.239C51.3859 217.239 53.2188 215.406 53.2188 213.145Z" fill="white"/>
<path d="M216.969 49.395C216.969 47.1341 215.136 45.3013 212.875 45.3013C210.614 45.3013 208.781 47.1341 208.781 49.395C208.781 51.6559 210.614 53.4888 212.875 53.4888C215.136 53.4888 216.969 51.6559 216.969 49.395Z" fill="white"/>
<path d="M216.969 213.145C216.969 210.884 215.136 209.051 212.875 209.051C210.614 209.051 208.781 210.884 208.781 213.145C208.781 215.406 210.614 217.239 212.875 217.239C215.136 217.239 216.969 215.406 216.969 213.145Z" fill="white"/>
</g>
<defs>
<radialGradient id="paint0_radial_1_36020" cx="0" cy="0" r="1" gradientUnits="userSpaceOnUse" gradientTransform="translate(131 131.27) rotate(90) scale(131.29 131.29)">
<stop offset="0.901042" stop-color="#D6E9FF" stop-opacity="0.12"/>
<stop offset="1" stop-color="#D6E9FF" stop-opacity="0"/>
</radialGradient>
<clipPath id="clip0_1_36020">
<rect width="262" height="262" fill="white" transform="translate(0 0.27002)"/>
</clipPath>
</defs>
</svg>
