<svg width="497" height="497" viewBox="0 0 497 497" fill="none" xmlns="http://www.w3.org/2000/svg">
<g clip-path="url(#clip0_1_36155)">
<path d="M72.0273 86.8267H424.027M72.0273 101.493H424.027M72.0273 116.16H424.027M72.0273 130.827H424.027M72.0273 145.493H424.027M72.0273 160.16H424.027M72.0273 174.827H424.027M72.0273 189.493H424.027M72.0273 204.16H424.027M72.0273 218.827H424.027M72.0273 233.493H424.027M72.0273 248.16H424.027M72.0273 262.827H424.027M72.0273 277.493H424.027M72.0273 292.16H424.027M72.0273 306.827H424.027M72.0273 321.493H424.027M72.0273 336.16H424.027M72.0273 350.827H424.027M72.0273 365.493H424.027M72.0273 380.16H424.027M72.0273 394.827H424.027M72.0273 409.493H424.027" stroke="white" stroke-opacity="0.16"/>
<path d="M86.6953 424.16V72.1602M101.362 424.16V72.1602M116.029 424.16V72.1602M130.696 424.16V72.1602M145.362 424.16V72.1602M160.029 424.16V72.1602M174.696 424.16V72.1602M189.362 424.16V72.1602M204.029 424.16V72.1602M218.696 424.16V72.1602M233.362 424.16V72.1602M248.029 424.16V72.1602M262.696 424.16V72.1602M277.362 424.16V72.1602M292.029 424.16V72.1602M306.696 424.16V72.1602M321.362 424.16V72.1602M336.029 424.16V72.1602M350.696 424.16V72.1602M365.362 424.16V72.1602M380.029 424.16V72.1602M394.696 424.16V72.1602M409.362 424.16V72.1602" stroke="white" stroke-opacity="0.16"/>
<path d="M248.026 380.16L119.078 232.791C110.146 222.583 105.68 217.479 103.825 211.69C102.189 206.585 101.983 201.128 103.231 195.914C104.645 190.001 108.714 184.576 116.852 173.725L145.946 134.933C151.109 128.05 153.69 124.608 156.961 122.126C159.859 119.927 163.14 118.287 166.637 117.288C170.586 116.16 174.888 116.16 183.493 116.16H248.026M248.026 380.16L376.974 232.791C385.906 222.583 390.372 217.479 392.227 211.69C393.863 206.585 394.069 201.128 392.821 195.914C391.407 190.001 387.338 184.576 379.2 173.725L350.106 134.933C344.943 128.05 342.362 124.608 339.091 122.126C336.193 119.927 332.912 118.287 329.415 117.288C325.466 116.16 321.164 116.16 312.559 116.16H248.026M248.026 380.16L189.359 204.16M248.026 380.16L306.693 204.16M248.026 116.16L306.693 204.16M189.359 204.16H306.693M189.359 204.16H145.359M189.359 204.16L218.693 160.16M306.693 204.16H350.693" stroke="white" stroke-width="16" stroke-linecap="round" stroke-linejoin="round"/>
<path d="M73.0273 72.1602H124.027V96.1602H73.0273V72.1602Z" fill="#484E5B"/>
<path d="M83.125 78.8243V77.7852H80.418V91.293H83.125V90.254H81.6143V78.8243H83.125ZM93.3516 85.3526V83.0215C93.3516 82.3881 93.2787 81.8275 93.1328 81.3399C92.987 80.8477 92.7774 80.433 92.5039 80.0957C92.2259 79.7585 91.8864 79.5033 91.4854 79.3301C91.0889 79.1524 90.6354 79.0635 90.125 79.0635C89.6192 79.0635 89.1657 79.1524 88.7647 79.3301C88.3682 79.5033 88.0332 79.7585 87.7598 80.0957C87.4818 80.433 87.2699 80.8477 87.1241 81.3399C86.9782 81.8275 86.9053 82.3881 86.9053 83.0215V85.3526C86.9053 85.986 86.9782 86.5489 87.1241 87.0411C87.2699 87.5287 87.4818 87.9388 87.7598 88.2715C88.0378 88.6133 88.3773 88.8708 88.7784 89.044C89.1794 89.2126 89.6328 89.2969 90.1387 89.2969C90.6491 89.2969 91.1026 89.2103 91.4991 89.0372C91.8955 88.864 92.2305 88.6088 92.5039 88.2715C92.7774 87.9388 92.987 87.5287 93.1328 87.0411C93.2787 86.5489 93.3516 85.986 93.3516 85.3526ZM88.1768 85.0997C88.1768 84.9812 88.1768 84.865 88.1768 84.751C88.1768 84.6371 88.1768 84.5232 88.1768 84.4092V82.7413C88.1768 82.2764 88.2224 81.8685 88.3135 81.5176C88.4092 81.1622 88.5528 80.8728 88.7442 80.6495C88.9037 80.4717 89.0974 80.3373 89.3252 80.2461C89.5576 80.1504 89.8243 80.1026 90.125 80.1026C90.4213 80.1026 90.681 80.1459 90.9043 80.2325C91.1322 80.3191 91.3236 80.4489 91.4785 80.6221C91.6381 80.7907 91.7634 81.0026 91.8545 81.2579C91.9502 81.5085 92.0163 81.7979 92.0528 82.126L88.1768 85.0997ZM92.0801 85.6192C92.0801 86.1068 92.03 86.5306 91.9297 86.8907C91.834 87.2507 91.6813 87.5424 91.4717 87.7657C91.3168 87.9297 91.1276 88.0551 90.9043 88.1416C90.681 88.2282 90.4258 88.2715 90.1387 88.2715C89.8653 88.2715 89.6192 88.2328 89.4004 88.1553C89.1817 88.0733 88.9948 87.9548 88.8399 87.7998C88.6713 87.6358 88.5345 87.4284 88.4297 87.1778C88.3249 86.9226 88.252 86.6286 88.211 86.2959L92.0801 83.336V83.8213V84.211V85.6192ZM97.9932 82.3516C97.9932 82.6159 98.0752 82.8415 98.2393 83.0284C98.4079 83.2107 98.6563 83.3018 98.9844 83.3018C99.308 83.3018 99.5563 83.2107 99.7295 83.0284C99.9027 82.8461 99.9893 82.6205 99.9893 82.3516C99.9893 82.0782 99.9027 81.848 99.7295 81.6612C99.5609 81.4698 99.3125 81.3741 98.9844 81.3741C98.6517 81.3741 98.4034 81.4698 98.2393 81.6612C98.0752 81.8526 97.9932 82.0827 97.9932 82.3516ZM99.6202 88.8663V87.6631H98.2461V88.8868C98.2461 89.2741 98.2006 89.6478 98.1094 90.0079C98.0183 90.3679 97.8633 90.7074 97.6446 91.0264L98.4307 91.4571C98.7953 91.1335 99.0847 90.7347 99.2989 90.2608C99.5131 89.7868 99.6202 89.322 99.6202 88.8663ZM110.168 85.3526V83.0215C110.168 82.3881 110.095 81.8275 109.949 81.3399C109.803 80.8477 109.593 80.433 109.32 80.0957C109.042 79.7585 108.702 79.5033 108.301 79.3301C107.905 79.1524 107.451 79.0635 106.941 79.0635C106.435 79.0635 105.982 79.1524 105.581 79.3301C105.184 79.5033 104.849 79.7585 104.576 80.0957C104.298 80.433 104.086 80.8477 103.94 81.3399C103.794 81.8275 103.721 82.3881 103.721 83.0215V85.3526C103.721 85.986 103.794 86.5489 103.94 87.0411C104.086 87.5287 104.298 87.9388 104.576 88.2715C104.854 88.6133 105.193 88.8708 105.594 89.044C105.995 89.2126 106.449 89.2969 106.955 89.2969C107.465 89.2969 107.919 89.2103 108.315 89.0372C108.712 88.864 109.047 88.6088 109.32 88.2715C109.593 87.9388 109.803 87.5287 109.949 87.0411C110.095 86.5489 110.168 85.986 110.168 85.3526ZM104.993 85.0997C104.993 84.9812 104.993 84.865 104.993 84.751C104.993 84.6371 104.993 84.5232 104.993 84.4092V82.7413C104.993 82.2764 105.038 81.8685 105.13 81.5176C105.225 81.1622 105.369 80.8728 105.56 80.6495C105.72 80.4717 105.913 80.3373 106.141 80.2461C106.374 80.1504 106.64 80.1026 106.941 80.1026C107.237 80.1026 107.497 80.1459 107.72 80.2325C107.948 80.3191 108.14 80.4489 108.295 80.6221C108.454 80.7907 108.579 81.0026 108.671 81.2579C108.766 81.5085 108.832 81.7979 108.869 82.126L104.993 85.0997ZM108.896 85.6192C108.896 86.1068 108.846 86.5306 108.746 86.8907C108.65 87.2507 108.497 87.5424 108.288 87.7657C108.133 87.9297 107.944 88.0551 107.72 88.1416C107.497 88.2282 107.242 88.2715 106.955 88.2715C106.681 88.2715 106.435 88.2328 106.216 88.1553C105.998 88.0733 105.811 87.9548 105.656 87.7998C105.487 87.6358 105.351 87.4284 105.246 87.1778C105.141 86.9226 105.068 86.6286 105.027 86.2959L108.896 83.336V83.8213V84.211V85.6192ZM113.907 77.7852V78.8243H115.424V90.254H113.907V91.293H116.621V77.7852H113.907Z" fill="white"/>
<path d="M365.027 72.1602H424.027V96.1602H365.027V72.1602Z" fill="#484E5B"/>
<path d="M374.922 78.8243V77.7852H372.215V91.293H374.922V90.254H373.411V78.8243H374.922ZM385.005 89.1602V88.128H380.007L382.68 85.2295C382.931 84.9561 383.168 84.6827 383.391 84.4092C383.619 84.1312 383.82 83.851 383.993 83.5684C384.161 83.2859 384.296 83.001 384.396 82.7139C384.496 82.4222 384.547 82.1283 384.547 81.8321C384.547 81.4356 384.476 81.0687 384.335 80.7315C384.198 80.3942 384 80.1026 383.74 79.8565C383.48 79.6104 383.161 79.419 382.783 79.2823C382.409 79.141 381.988 79.0704 381.518 79.0704C381.008 79.0704 380.552 79.1524 380.151 79.3164C379.755 79.4805 379.42 79.7015 379.146 79.9795C378.868 80.2575 378.656 80.5834 378.51 80.9571C378.365 81.3262 378.292 81.7204 378.292 82.1397H379.563C379.563 81.8298 379.602 81.5495 379.679 81.2989C379.761 81.0482 379.884 80.834 380.048 80.6563C380.208 80.4831 380.409 80.3487 380.65 80.253C380.896 80.1573 381.186 80.1094 381.518 80.1094C381.792 80.1094 382.035 80.1573 382.25 80.253C382.468 80.3441 382.655 80.4694 382.81 80.629C382.961 80.7885 383.075 80.9776 383.152 81.1963C383.234 81.4105 383.275 81.6407 383.275 81.8868C383.275 82.0873 383.25 82.2832 383.2 82.4747C383.15 82.6615 383.065 82.8597 382.947 83.0694C382.828 83.2836 382.671 83.516 382.475 83.7666C382.279 84.0173 382.035 84.3044 381.744 84.628L378.483 88.251V89.1602H385.005ZM392.435 85.8174V79.2071H391.089L386.631 86.1045V86.8497H391.171V89.1602H392.435V86.8497H393.823V85.8174H392.435ZM388.033 85.8174L390.965 81.2715L391.171 80.8887V85.8174H388.033ZM398.198 82.3516C398.198 82.6159 398.28 82.8415 398.444 83.0284C398.613 83.2107 398.861 83.3018 399.189 83.3018C399.513 83.3018 399.761 83.2107 399.934 83.0284C400.107 82.8461 400.194 82.6205 400.194 82.3516C400.194 82.0782 400.107 81.848 399.934 81.6612C399.766 81.4698 399.517 81.3741 399.189 81.3741C398.856 81.3741 398.608 81.4698 398.444 81.6612C398.28 81.8526 398.198 82.0827 398.198 82.3516ZM399.825 88.8663V87.6631H398.451V88.8868C398.451 89.2741 398.405 89.6478 398.314 90.0079C398.223 90.3679 398.068 90.7074 397.849 91.0264L398.635 91.4571C399 91.1335 399.289 90.7347 399.504 90.2608C399.718 89.7868 399.825 89.322 399.825 88.8663ZM410.373 85.3526V83.0215C410.373 82.3881 410.3 81.8275 410.154 81.3399C410.008 80.8477 409.798 80.433 409.525 80.0957C409.247 79.7585 408.908 79.5033 408.506 79.3301C408.11 79.1524 407.657 79.0635 407.146 79.0635C406.64 79.0635 406.187 79.1524 405.786 79.3301C405.389 79.5033 405.054 79.7585 404.781 80.0957C404.503 80.433 404.291 80.8477 404.145 81.3399C403.999 81.8275 403.926 82.3881 403.926 83.0215V85.3526C403.926 85.986 403.999 86.5489 404.145 87.0411C404.291 87.5287 404.503 87.9388 404.781 88.2715C405.059 88.6133 405.398 88.8708 405.799 89.044C406.201 89.2126 406.654 89.2969 407.16 89.2969C407.67 89.2969 408.124 89.2103 408.52 89.0372C408.917 88.864 409.252 88.6088 409.525 88.2715C409.798 87.9388 410.008 87.5287 410.154 87.0411C410.3 86.5489 410.373 85.986 410.373 85.3526ZM405.198 85.0997C405.198 84.9812 405.198 84.865 405.198 84.751C405.198 84.6371 405.198 84.5232 405.198 84.4092V82.7413C405.198 82.2764 405.243 81.8685 405.335 81.5176C405.43 81.1622 405.574 80.8728 405.765 80.6495C405.925 80.4717 406.118 80.3373 406.346 80.2461C406.579 80.1504 406.845 80.1026 407.146 80.1026C407.442 80.1026 407.702 80.1459 407.925 80.2325C408.153 80.3191 408.345 80.4489 408.5 80.6221C408.659 80.7907 408.784 81.0026 408.876 81.2579C408.971 81.5085 409.037 81.7979 409.074 82.126L405.198 85.0997ZM409.101 85.6192C409.101 86.1068 409.051 86.5306 408.951 86.8907C408.855 87.2507 408.702 87.5424 408.493 87.7657C408.338 87.9297 408.149 88.0551 407.925 88.1416C407.702 88.2282 407.447 88.2715 407.16 88.2715C406.886 88.2715 406.64 88.2328 406.422 88.1553C406.203 88.0733 406.016 87.9548 405.861 87.7998C405.692 87.6358 405.556 87.4284 405.451 87.1778C405.346 86.9226 405.273 86.6286 405.232 86.2959L409.101 83.336V83.8213V84.211V85.6192ZM414.112 77.7852V78.8243H415.63V90.254H414.112V91.293H416.826V77.7852H414.112Z" fill="white"/>
<path d="M214.027 72.1602H281.027V96.1602H214.027V72.1602Z" fill="#484E5B"/>
<path d="M221.73 89.1602H222.831L225.968 79.2071H224.622L222.421 86.6241L222.27 87.1231L222.127 86.6377L219.939 79.2071H218.586L221.73 89.1602ZM227.896 81.7637V82.8643H230.412V88.0664H227.896V89.1602H234.09V88.0664H231.676V81.7637H227.896ZM230.248 79.8223C230.248 80.0274 230.309 80.1983 230.432 80.335C230.56 80.4717 230.751 80.5401 231.007 80.5401C231.257 80.5401 231.446 80.4717 231.574 80.335C231.702 80.1983 231.765 80.0274 231.765 79.8223C231.765 79.7084 231.747 79.6036 231.711 79.5079C231.674 79.4122 231.619 79.3324 231.547 79.2686C231.487 79.2094 231.412 79.1638 231.321 79.1319C231.23 79.0954 231.125 79.0772 231.007 79.0772C230.888 79.0772 230.781 79.0954 230.685 79.1319C230.594 79.1638 230.519 79.2094 230.46 79.2686C230.387 79.337 230.332 79.419 230.296 79.5147C230.264 79.6104 230.248 79.7129 230.248 79.8223ZM239.374 89.2969C240.094 89.2969 240.698 89.1534 241.185 88.8663C241.677 88.5746 242.047 88.2419 242.293 87.8682L241.52 87.2666C241.288 87.5674 240.996 87.809 240.645 87.9913C240.294 88.1735 239.893 88.2647 239.442 88.2647C239.1 88.2647 238.788 88.2009 238.506 88.0733C238.223 87.9457 237.981 87.7702 237.781 87.5469C237.585 87.3373 237.43 87.0957 237.316 86.8223C237.207 86.5489 237.136 86.2321 237.104 85.8721V85.8243H242.388V85.2569C242.388 84.7419 242.322 84.2634 242.19 83.8213C242.063 83.3793 241.867 82.9942 241.602 82.6661C241.338 82.3425 241.005 82.0896 240.604 81.9073C240.208 81.7204 239.743 81.627 239.21 81.627C238.786 81.627 238.371 81.7136 237.966 81.8868C237.564 82.0599 237.207 82.3083 236.892 82.6319C236.573 82.96 236.318 83.361 236.127 83.835C235.935 84.3044 235.84 84.8376 235.84 85.4346V85.7217C235.84 86.2367 235.926 86.7129 236.099 87.1504C236.272 87.5879 236.514 87.9662 236.824 88.2852C237.134 88.6042 237.505 88.8526 237.938 89.0303C238.376 89.2081 238.854 89.2969 239.374 89.2969ZM239.21 82.6661C239.533 82.6661 239.811 82.7253 240.044 82.8438C240.281 82.9623 240.477 83.1172 240.632 83.3086C240.786 83.5 240.907 83.7279 240.994 83.9922C241.08 84.252 241.124 84.4958 241.124 84.7237V84.7852H237.145C237.195 84.4434 237.282 84.1426 237.405 83.8829C237.533 83.6185 237.688 83.3952 237.87 83.2129C238.052 83.0352 238.257 82.9008 238.485 82.8096C238.713 82.7139 238.954 82.6661 239.21 82.6661ZM245.225 89.1602H246.223L247.365 84.628L247.55 83.4795L247.741 84.628L248.896 89.1602H249.894L251.467 81.7637H250.345L249.525 86.4805L249.341 87.6426L249.142 86.4805L247.967 81.7637H247.153L245.97 86.4805L245.786 87.5401L245.635 86.4805L244.774 81.7637H243.653L245.225 89.1602ZM259.191 85.544V85.4004C259.191 85.0131 259.159 84.6462 259.095 84.2998C259.032 83.9489 258.938 83.6299 258.815 83.3428C258.697 83.0876 258.56 82.8575 258.405 82.6524C258.25 82.4428 258.075 82.265 257.879 82.1192C257.66 81.9642 257.416 81.8435 257.147 81.7569C256.878 81.6703 256.584 81.627 256.265 81.627C256.01 81.627 255.773 81.6521 255.554 81.7022C255.336 81.7523 255.135 81.8252 254.953 81.9209C254.807 81.9984 254.67 82.0918 254.543 82.2012C254.415 82.306 254.299 82.4245 254.194 82.5567V78.6602H252.929V89.1602H254.091L254.153 88.3194C254.235 88.4242 254.322 88.5199 254.413 88.6065C254.504 88.6931 254.6 88.7728 254.7 88.8457C254.91 88.9916 255.144 89.1032 255.404 89.1807C255.668 89.2582 255.96 89.2969 256.279 89.2969C256.557 89.2969 256.814 89.2627 257.051 89.1944C257.293 89.126 257.514 89.0303 257.715 88.9073C257.993 88.7295 258.23 88.5062 258.425 88.2373C258.626 87.9639 258.788 87.6563 258.911 87.3145C259.002 87.0547 259.07 86.7767 259.116 86.4805C259.166 86.1797 259.191 85.8676 259.191 85.544ZM257.926 85.4004V85.544C257.926 85.7627 257.913 85.9769 257.885 86.1866C257.858 86.3962 257.815 86.5922 257.756 86.7745C257.683 87.016 257.585 87.2347 257.462 87.4307C257.339 87.6267 257.186 87.7885 257.004 87.9161C256.867 88.0163 256.712 88.0938 256.539 88.1485C256.366 88.1986 256.174 88.2237 255.965 88.2237C255.746 88.2237 255.545 88.1963 255.363 88.1416C255.181 88.0824 255.017 88.0004 254.871 87.8956C254.725 87.7907 254.595 87.67 254.481 87.5332C254.372 87.392 254.276 87.2393 254.194 87.0752V83.8418C254.272 83.6778 254.365 83.5274 254.474 83.3907C254.588 83.2494 254.718 83.1263 254.864 83.0215C255.005 82.9213 255.167 82.8438 255.349 82.7891C255.532 82.7299 255.732 82.7002 255.951 82.7002C256.151 82.7002 256.334 82.723 256.498 82.7686C256.662 82.8142 256.81 82.878 256.942 82.96C257.133 83.0739 257.295 83.2312 257.427 83.4317C257.56 83.6322 257.667 83.8532 257.749 84.0948C257.808 84.2907 257.851 84.5004 257.879 84.7237C257.911 84.9424 257.926 85.168 257.926 85.4004ZM260.975 85.3936V85.544C260.975 86.0772 261.053 86.5717 261.208 87.0274C261.363 87.4831 261.586 87.8796 261.878 88.2168C262.165 88.5541 262.516 88.8184 262.93 89.0098C263.35 89.2012 263.821 89.2969 264.345 89.2969C264.865 89.2969 265.332 89.2012 265.747 89.0098C266.161 88.8184 266.515 88.5541 266.806 88.2168C267.093 87.8796 267.314 87.4831 267.469 87.0274C267.624 86.5717 267.702 86.0772 267.702 85.544V85.3936C267.702 84.8604 267.624 84.3659 267.469 83.9102C267.314 83.4499 267.093 83.0512 266.806 82.7139C266.515 82.3767 266.159 82.1123 265.74 81.9209C265.325 81.725 264.856 81.627 264.332 81.627C263.812 81.627 263.345 81.725 262.93 81.9209C262.516 82.1123 262.165 82.3767 261.878 82.7139C261.586 83.0512 261.363 83.4499 261.208 83.9102C261.053 84.3659 260.975 84.8604 260.975 85.3936ZM262.24 85.544V85.3936C262.24 85.0336 262.283 84.6895 262.37 84.3614C262.456 84.0287 262.589 83.737 262.766 83.4864C262.939 83.2357 263.156 83.0375 263.416 82.8916C263.675 82.7413 263.981 82.6661 264.332 82.6661C264.683 82.6661 264.988 82.7413 265.248 82.8916C265.512 83.0375 265.733 83.2357 265.911 83.4864C266.084 83.737 266.214 84.0287 266.3 84.3614C266.392 84.6895 266.437 85.0336 266.437 85.3936V85.544C266.437 85.9086 266.394 86.2572 266.307 86.5899C266.221 86.918 266.091 87.2074 265.918 87.4581C265.74 87.7087 265.519 87.9069 265.255 88.0528C264.995 88.1986 264.692 88.2715 264.345 88.2715C263.994 88.2715 263.687 88.1986 263.423 88.0528C263.158 87.9069 262.939 87.7087 262.766 87.4581C262.589 87.2074 262.456 86.918 262.37 86.5899C262.283 86.2572 262.24 85.9086 262.24 85.544ZM272.795 84.5049L270.84 81.7637H269.377L272.132 85.4209L269.301 89.1602H270.778L272.822 86.3438L274.866 89.1602H276.329L273.499 85.4209L276.254 81.7637H274.77L272.795 84.5049Z" fill="white"/>
<path d="M357.027 400.16H424.027V424.16H357.027V400.16Z" fill="#484E5B"/>
<path d="M366.719 406.824V405.785H364.012V419.293H366.719V418.254H365.209V406.824H366.719ZM376.802 417.16V416.128H371.805L374.478 413.229C374.729 412.956 374.966 412.682 375.189 412.409C375.417 412.131 375.618 411.851 375.791 411.568C375.959 411.286 376.094 411.001 376.194 410.714C376.294 410.422 376.344 410.128 376.344 409.832C376.344 409.435 376.274 409.069 376.133 408.731C375.996 408.394 375.798 408.102 375.538 407.856C375.278 407.61 374.959 407.419 374.581 407.282C374.207 407.141 373.786 407.07 373.316 407.07C372.806 407.07 372.35 407.152 371.949 407.316C371.552 407.48 371.217 407.701 370.944 407.979C370.666 408.257 370.454 408.583 370.308 408.957C370.162 409.326 370.09 409.72 370.09 410.139H371.361C371.361 409.83 371.4 409.549 371.477 409.299C371.559 409.048 371.682 408.834 371.846 408.656C372.006 408.483 372.206 408.348 372.448 408.253C372.694 408.157 372.983 408.109 373.316 408.109C373.59 408.109 373.833 408.157 374.048 408.253C374.266 408.344 374.453 408.469 374.608 408.629C374.758 408.788 374.872 408.977 374.95 409.196C375.032 409.41 375.073 409.64 375.073 409.887C375.073 410.087 375.048 410.283 374.998 410.474C374.948 410.661 374.863 410.86 374.745 411.069C374.626 411.283 374.469 411.516 374.273 411.766C374.077 412.017 373.833 412.304 373.542 412.628L370.281 416.251V417.16H376.802ZM384.233 413.817V407.207H382.886L378.429 414.104V414.849H382.968V417.16H384.233V414.849H385.621V413.817H384.233ZM379.831 413.817L382.763 409.271L382.968 408.889V413.817H379.831ZM389.996 410.351C389.996 410.616 390.078 410.841 390.242 411.028C390.411 411.21 390.659 411.302 390.987 411.302C391.311 411.302 391.559 411.21 391.732 411.028C391.905 410.846 391.992 410.62 391.992 410.351C391.992 410.078 391.905 409.848 391.732 409.661C391.564 409.47 391.315 409.374 390.987 409.374C390.654 409.374 390.406 409.47 390.242 409.661C390.078 409.852 389.996 410.083 389.996 410.351ZM391.623 416.866V415.663H390.249V416.887C390.249 417.274 390.203 417.648 390.112 418.008C390.021 418.368 389.866 418.707 389.647 419.026L390.433 419.457C390.798 419.133 391.087 418.735 391.301 418.261C391.516 417.787 391.623 417.322 391.623 416.866ZM402.027 417.16V416.128H397.03L399.703 413.229C399.953 412.956 400.19 412.682 400.414 412.409C400.642 412.131 400.842 411.851 401.015 411.568C401.184 411.286 401.318 411.001 401.419 410.714C401.519 410.422 401.569 410.128 401.569 409.832C401.569 409.435 401.498 409.069 401.357 408.731C401.22 408.394 401.022 408.102 400.762 407.856C400.503 407.61 400.184 407.419 399.805 407.282C399.432 407.141 399.01 407.07 398.541 407.07C398.03 407.07 397.575 407.152 397.174 407.316C396.777 407.48 396.442 407.701 396.169 407.979C395.891 408.257 395.679 408.583 395.533 408.957C395.387 409.326 395.314 409.72 395.314 410.139H396.586C396.586 409.83 396.624 409.549 396.702 409.299C396.784 409.048 396.907 408.834 397.071 408.656C397.23 408.483 397.431 408.348 397.673 408.253C397.919 408.157 398.208 408.109 398.541 408.109C398.814 408.109 399.058 408.157 399.272 408.253C399.491 408.344 399.678 408.469 399.833 408.629C399.983 408.788 400.097 408.977 400.175 409.196C400.257 409.41 400.298 409.64 400.298 409.887C400.298 410.087 400.272 410.283 400.222 410.474C400.172 410.661 400.088 410.86 399.969 411.069C399.851 411.283 399.694 411.516 399.498 411.766C399.302 412.017 399.058 412.304 398.766 412.628L395.506 416.251V417.16H402.027ZM409.458 413.817V407.207H408.111L403.654 414.104V414.849H408.193V417.16H409.458V414.849H410.845V413.817H409.458ZM405.055 413.817L407.988 409.271L408.193 408.889V413.817H405.055ZM414.318 405.785V406.824H415.836V418.254H414.318V419.293H417.032V405.785H414.318Z" fill="white"/>
<path d="M72.0273 400.16H131.027V424.16H72.0273V400.16Z" fill="#484E5B"/>
<path d="M81.9218 406.824V405.785H79.2148V419.293H81.9218V418.254H80.4111V406.824H81.9218ZM92.1484 413.352V411.021C92.1484 410.388 92.0755 409.827 91.9296 409.34C91.7838 408.848 91.5742 408.433 91.3007 408.096C91.0227 407.758 90.6832 407.503 90.2822 407.33C89.8857 407.152 89.4322 407.063 88.9218 407.063C88.416 407.063 87.9625 407.152 87.5615 407.33C87.165 407.503 86.83 407.758 86.5566 408.096C86.2786 408.433 86.0667 408.848 85.9209 409.34C85.775 409.827 85.7021 410.388 85.7021 411.021V413.352C85.7021 413.986 85.775 414.549 85.9209 415.041C86.0667 415.528 86.2786 415.939 86.5566 416.271C86.8346 416.613 87.1741 416.871 87.5752 417.044C87.9762 417.212 88.4296 417.297 88.9355 417.297C89.4459 417.297 89.8994 417.21 90.2959 417.037C90.6923 416.864 91.0273 416.609 91.3007 416.271C91.5742 415.939 91.7838 415.528 91.9296 415.041C92.0755 414.549 92.1484 413.986 92.1484 413.352ZM86.9736 413.099C86.9736 412.981 86.9736 412.865 86.9736 412.751C86.9736 412.637 86.9736 412.523 86.9736 412.409V410.741C86.9736 410.276 87.0192 409.868 87.1103 409.517C87.206 409.162 87.3496 408.873 87.541 408.649C87.7005 408.472 87.8942 408.337 88.122 408.246C88.3544 408.15 88.6211 408.102 88.9218 408.102C89.2181 408.102 89.4778 408.146 89.7011 408.232C89.929 408.319 90.1204 408.449 90.2753 408.622C90.4349 408.791 90.5602 409.002 90.6513 409.258C90.747 409.508 90.8131 409.798 90.8496 410.126L86.9736 413.099ZM90.8769 413.619C90.8769 414.107 90.8268 414.53 90.7265 414.89C90.6308 415.25 90.4781 415.542 90.2685 415.765C90.1136 415.93 89.9244 416.055 89.7011 416.141C89.4778 416.228 89.2226 416.271 88.9355 416.271C88.6621 416.271 88.416 416.233 88.1972 416.155C87.9785 416.073 87.7916 415.955 87.6367 415.8C87.4681 415.636 87.3313 415.428 87.2265 415.178C87.1217 414.922 87.0488 414.628 87.0078 414.296L90.8769 411.336V411.821V412.211V413.619ZM97.5146 416.866V415.663H96.1406V416.887C96.1406 417.274 96.095 417.648 96.0039 418.008C95.9127 418.368 95.7578 418.707 95.539 419.026L96.3252 419.457C96.6897 419.133 96.9791 418.735 97.1933 418.261C97.4075 417.787 97.5146 417.322 97.5146 416.866ZM108.821 417.16V416.128H103.824L106.497 413.229C106.747 412.956 106.984 412.682 107.208 412.409C107.436 412.131 107.636 411.851 107.809 411.568C107.978 411.286 108.112 411.001 108.213 410.714C108.313 410.422 108.363 410.128 108.363 409.832C108.363 409.435 108.292 409.069 108.151 408.731C108.014 408.394 107.816 408.102 107.556 407.856C107.297 407.61 106.978 407.419 106.599 407.282C106.226 407.141 105.804 407.07 105.335 407.07C104.824 407.07 104.368 407.152 103.967 407.316C103.571 407.48 103.236 407.701 102.963 407.979C102.685 408.257 102.473 408.583 102.327 408.957C102.181 409.326 102.108 409.72 102.108 410.139H103.38C103.38 409.83 103.418 409.549 103.496 409.299C103.578 409.048 103.701 408.834 103.865 408.656C104.024 408.483 104.225 408.348 104.466 408.253C104.713 408.157 105.002 408.109 105.335 408.109C105.608 408.109 105.852 408.157 106.066 408.253C106.285 408.344 106.472 408.469 106.627 408.629C106.777 408.788 106.891 408.977 106.968 409.196C107.05 409.41 107.091 409.64 107.091 409.887C107.091 410.087 107.066 410.283 107.016 410.474C106.966 410.661 106.882 410.86 106.763 411.069C106.645 411.283 106.488 411.516 106.292 411.766C106.096 412.017 105.852 412.304 105.56 412.628L102.299 416.251V417.16H108.821ZM116.252 413.817V407.207H114.905L110.448 414.104V414.849H114.987V417.16H116.252V414.849H117.639V413.817H116.252ZM111.849 413.817L114.782 409.271L114.987 408.889V413.817H111.849ZM121.112 405.785V406.824H122.63V418.254H121.112V419.293H123.826V405.785H121.112Z" fill="white"/>
<path d="M495.527 248.16C495.527 384.85 384.717 495.66 248.027 495.66C111.337 495.66 0.527344 384.85 0.527344 248.16C0.527344 111.47 111.337 0.660156 248.027 0.660156C384.717 0.660156 495.527 111.47 495.527 248.16Z" stroke="white" stroke-opacity="0.12"/>
<path d="M0.0273591 423.16H496.027M0.0273438 72.1602H496.027" stroke="url(#paint0_linear_1_36155)"/>
<path d="M73.0273 0.160156V496.16M424.027 0.160156V496.16" stroke="url(#paint1_linear_1_36155)"/>
</g>
<defs>
<linearGradient id="paint0_linear_1_36155" x1="496.027" y1="248.16" x2="0.0273438" y2="248.16" gradientUnits="userSpaceOnUse">
<stop stop-color="white" stop-opacity="0"/>
<stop offset="0.25" stop-color="white" stop-opacity="0.32"/>
<stop offset="0.5" stop-color="white" stop-opacity="0.32"/>
<stop offset="0.75" stop-color="white" stop-opacity="0.32"/>
<stop offset="1" stop-color="white" stop-opacity="0"/>
</linearGradient>
<linearGradient id="paint1_linear_1_36155" x1="248.277" y1="0.160156" x2="248.277" y2="496.16" gradientUnits="userSpaceOnUse">
<stop stop-color="white" stop-opacity="0"/>
<stop offset="0.25" stop-color="white" stop-opacity="0.32"/>
<stop offset="0.5" stop-color="white" stop-opacity="0.32"/>
<stop offset="0.75" stop-color="white" stop-opacity="0.32"/>
<stop offset="1" stop-color="white" stop-opacity="0"/>
</linearGradient>
<clipPath id="clip0_1_36155">
<rect width="496" height="496" fill="white" transform="translate(0.0273438 0.160156)"/>
</clipPath>
</defs>
</svg>
