<svg width="262" height="263" viewBox="0 0 262 263" fill="none" xmlns="http://www.w3.org/2000/svg">
<g clip-path="url(#clip0_1_36038)">
<mask id="mask0_1_36038" style="mask-type:luminance" maskUnits="userSpaceOnUse" x="0" y="0" width="262" height="263">
<path d="M262 0.27002H0V262.27H262V0.27002Z" fill="white"/>
</mask>
<g mask="url(#mask0_1_36038)">
<path fill-rule="evenodd" clip-rule="evenodd" d="M141.997 119.695L131 130.691L120.004 119.695C122.86 116.981 126.718 115.314 130.966 115.304H131.034C135.282 115.314 139.141 116.981 141.997 119.695ZM142.575 119.116C140.78 117.406 138.606 116.088 136.193 115.304H146.388L142.575 119.116ZM142.575 120.274L131.579 131.27L142.575 142.266C145.275 139.425 146.94 135.591 146.966 131.368V131.172C146.94 126.949 145.275 123.115 142.575 120.274ZM141.997 142.845L131 131.849L120.004 142.845C122.867 145.566 126.739 147.236 131 147.236C135.262 147.236 139.133 145.565 141.997 142.845ZM119.425 142.266L130.422 131.27L119.425 120.273C116.704 123.137 115.035 127.008 115.035 131.27C115.035 135.532 116.704 139.403 119.425 142.266ZM119.425 119.116C121.22 117.406 123.394 116.088 125.807 115.304H115.614L119.425 119.116ZM115.035 115.883L118.846 119.694C117.136 121.49 115.818 123.664 115.035 126.078V115.883ZM114.216 113.906V85.5231C107.645 87.9346 101.738 91.7213 96.8438 96.5345L114.216 113.906ZM96.2649 97.1133L113.638 114.486H85.2532C87.6647 107.915 91.4516 102.008 96.2649 97.1133ZM96.2649 95.9554C101.312 90.9903 107.419 87.099 114.216 84.6517V82.5543H82.8638L96.2649 95.9554ZM82.2842 83.1327L95.6859 96.5344C90.7206 101.582 86.8292 107.689 84.3818 114.486H82.2842V83.1327ZM81.4655 81.1561V49.8043H50.9467C50.8067 49.942 50.667 50.0799 50.5277 50.2182L81.4655 81.1561ZM49.9487 50.7972L80.8871 81.7356H49.5342V51.2168C49.6721 51.0766 49.8102 50.9367 49.9487 50.7972ZM48.7155 48.406L0.289882 -0.0195312L-0.289062 0.559412L48.1371 48.9856H-9.00924e-05L-9.0152e-05 49.8043H48.7155V50.8825C39.9403 59.8635 32.6233 70.2754 27.1473 81.7356H-9.07183e-05L-9.06885e-05 82.5543H26.7602C22.1022 92.5041 18.8269 103.23 17.1815 114.486H-9.12845e-05L-9.12547e-05 115.304H17.0648C16.3404 120.523 15.9659 125.852 15.9659 131.27C15.9659 136.687 16.3404 142.017 17.0648 147.236H-9.18806e-05L-9.18508e-05 148.054H17.1815C18.827 159.31 22.1023 170.036 26.7602 179.986H-9.24468e-05L-9.2417e-05 180.804H27.1474C32.6234 192.265 39.9403 202.676 48.7155 211.657V212.736H-8.91984e-05L-8.91387e-05 213.554H48.1371L-0.289062 261.98L0.289882 262.56L48.7155 214.134V262.27H49.5342V213.554H50.6124C59.5934 222.329 70.0053 229.647 81.4655 235.122V262.27H82.2842V235.51C92.234 240.168 102.96 243.443 114.216 245.089V262.27H115.035V245.205C120.252 245.93 125.583 246.304 131 246.304C136.417 246.304 141.747 245.93 146.966 245.205V262.27H147.785V245.089C159.039 243.443 169.766 240.168 179.716 235.51V262.27H180.535V235.123C191.995 229.647 202.406 222.329 211.388 213.554H212.466V262.27H213.285V214.133L261.711 262.56L262.29 261.98L213.864 213.554H262V212.736H213.285V211.658C222.059 202.677 229.377 192.265 234.853 180.804H262V179.986H235.24C239.898 170.036 243.173 159.31 244.819 148.054H262V147.236H244.935C245.66 142.017 246.035 136.687 246.035 131.27C246.035 125.852 245.66 120.522 244.935 115.304H262V114.486H244.819C243.173 103.23 239.898 92.5041 235.24 82.5543H262V81.7356H234.853C229.377 70.2751 222.059 59.8629 213.285 50.8817V49.8043H262V48.9856H213.864L262.29 0.559412L261.711 -0.0195312L213.285 48.4072V0.269928L212.466 0.269928V48.9856H211.388C202.406 40.2101 191.995 32.8929 180.535 27.4169V0.269945L179.716 0.269945V27.0297C169.766 22.3718 159.039 19.0966 147.785 17.4512V0.269946L146.966 0.269946V17.3345C141.747 16.6101 136.417 16.2356 131 16.2356C125.583 16.2356 120.252 16.6101 115.035 17.3347V0.269947L114.216 0.269947V17.4513C102.96 19.0968 92.234 22.3721 82.2842 27.0301V0.269949L81.4655 0.269949V27.4174C70.0053 32.8933 59.5934 40.2103 50.6124 48.9856H49.5342V0.26995L48.7155 0.26995V48.406ZM211.473 50.2184C211.334 50.08 211.194 49.942 211.053 49.8043H180.535V81.1571L211.473 50.2184ZM179.138 82.5543H147.785V84.6514C154.581 87.0988 160.688 90.9902 165.736 95.9556L179.138 82.5543ZM166.315 96.5346L179.716 83.1338V114.486H177.619C175.172 107.689 171.28 101.582 166.315 96.5346ZM165.156 96.5346C160.262 91.7213 154.355 87.9343 147.785 85.5228V113.907L165.156 96.5346ZM148.364 114.486L165.736 97.1135C170.549 102.008 174.336 107.915 176.747 114.486H148.364ZM146.966 115.884V126.076C146.181 123.663 144.865 121.49 143.155 119.695L146.966 115.884ZM181.114 81.7356L212.052 50.7974C212.19 50.9366 212.328 51.0762 212.466 51.2161V81.7356H181.114ZM212.052 211.743C212.19 211.604 212.328 211.464 212.466 211.323V180.804H181.114L212.052 211.743ZM179.716 179.406V148.054H177.619C175.172 154.851 171.28 160.958 166.315 166.006L179.716 179.406ZM165.736 166.584L179.138 179.986H147.785V177.889C154.581 175.441 160.688 171.549 165.736 166.584ZM165.736 165.426C170.549 160.532 174.336 154.625 176.747 148.054H148.364L165.736 165.426ZM147.785 148.633L165.156 166.006C160.262 170.819 154.355 174.605 147.785 177.017V148.633ZM146.388 147.236H136.193C138.606 146.451 140.78 145.135 142.575 143.424L146.388 147.236ZM146.966 146.656L143.155 142.845C144.865 141.05 146.181 138.877 146.966 136.464V146.656ZM180.535 181.383L211.473 212.321C211.334 212.459 211.194 212.598 211.053 212.736H180.535V181.383ZM50.5277 212.321C50.667 212.46 50.8067 212.598 50.9467 212.736H81.4655V181.384L50.5277 212.321ZM82.8637 179.986H114.216V177.889C107.419 175.441 101.312 171.549 96.2649 166.585L82.8637 179.986ZM95.6859 166.006L82.2842 179.407V148.054H84.3819C86.8292 154.851 90.7206 160.958 95.6859 166.006ZM96.8438 166.006C101.738 170.819 107.645 174.605 114.216 177.017V148.634L96.8438 166.006ZM113.638 148.054L96.2649 165.426C91.4516 160.532 87.6647 154.625 85.2532 148.054H113.638ZM115.035 146.657V136.462C115.818 138.876 117.136 141.05 118.846 142.845L115.035 146.657ZM115.614 147.236L119.425 143.424C121.22 145.135 123.394 146.451 125.807 147.236H115.614ZM80.887 180.804L49.9487 211.743C49.8102 211.603 49.6721 211.464 49.5342 211.323V180.804H80.887ZM28.0557 81.7356C33.3507 70.7514 40.3519 60.7445 48.7155 52.0585V81.7356H28.0557ZM27.6651 82.5543H48.7155V114.486H18.0092C19.6678 103.223 22.9703 92.4955 27.6651 82.5543ZM49.5342 82.5543V114.486H81.4655V82.5543H49.5342ZM17.8916 115.304H48.7155V147.236H17.8916C17.1619 142.018 16.7846 136.688 16.7846 131.27C16.7846 125.852 17.1619 120.522 17.8916 115.304ZM49.5342 115.304V147.236H81.4655V115.304H49.5342ZM18.0092 148.054H48.7155V179.986H27.6651C22.9703 170.044 19.6679 159.317 18.0092 148.054ZM49.5342 148.054V179.986H81.4655V148.054H49.5342ZM28.0557 180.804H48.7155V210.481C40.3519 201.795 33.3508 191.789 28.0557 180.804ZM51.7883 213.554H81.4655V234.215C70.4813 228.919 60.4744 221.918 51.7883 213.554ZM82.2842 213.554V234.604C92.2254 239.3 102.953 242.603 114.216 244.261V213.554H82.2842ZM131 245.486C125.582 245.486 120.252 245.108 115.035 244.378V213.554H146.966V244.378C141.748 245.108 136.418 245.486 131 245.486ZM146.966 212.736H115.035V180.804H131H146.966V212.736ZM121.984 179.986H115.035V178.175C117.282 178.94 119.603 179.548 121.984 179.986ZM131 179.986C125.408 179.986 120.036 179.043 115.035 177.309V148.054H131H146.966V177.309C141.964 179.043 136.592 179.986 131 179.986ZM114.216 147.236V115.304H84.961C83.2268 120.306 82.2846 125.678 82.2846 131.27C82.2846 136.862 83.2268 142.234 84.9611 147.236H114.216ZM130.965 114.486H115.035V85.2309C120.021 83.5019 125.374 82.5602 130.948 82.5543H131.052C136.625 82.5602 141.98 83.5018 146.966 85.2306V114.486H131.035H131H130.965ZM121.983 82.5543C119.603 82.9922 117.282 83.6 115.035 84.365V82.5543H121.983ZM130.948 81.7356H115.035V49.8043H146.966V81.7356H131.052H131H130.948ZM114.216 81.7356V49.8043H82.2842V81.7356H114.216ZM146.966 48.9856H115.035V18.1614C120.252 17.4316 125.582 17.0543 131 17.0543C136.418 17.0543 141.748 17.4316 146.966 18.1613V48.9856ZM114.216 48.9856V18.279C102.953 19.9376 92.2254 23.2402 82.2842 27.935V48.9856H114.216ZM51.7883 48.9856C60.4743 40.6219 70.4813 33.6207 81.4655 28.3257V48.9856H51.7883ZM147.785 48.9856V18.2789C159.046 19.9375 169.774 23.2399 179.716 27.9346V48.9856H147.785ZM180.535 48.9856V28.3253C191.519 33.6204 201.526 40.6217 210.212 48.9856H180.535ZM147.785 49.8043H179.716V81.7356H147.785V49.8043ZM180.535 82.5543V114.486H212.466V82.5543H180.535ZM177.905 115.304H179.716V122.251C179.278 119.871 178.67 117.552 177.905 115.304ZM180.535 115.304V131.076C180.535 131.122 180.535 131.169 180.535 131.216V131.27C180.535 131.302 180.535 131.335 180.535 131.367C180.535 131.4 180.535 131.432 180.535 131.465V147.236H212.466V115.304H180.535ZM179.716 131.461V131.079C179.694 125.555 178.754 120.249 177.039 115.304H147.785V131.169C147.785 131.203 147.785 131.236 147.785 131.27C147.785 131.304 147.785 131.338 147.785 131.37V147.236H177.039C178.754 142.29 179.694 136.984 179.716 131.461ZM140.018 179.986C142.397 179.548 144.717 178.94 146.966 178.175V179.986H140.018ZM147.785 212.736V180.804H179.716V212.736H147.785ZM213.285 210.482V180.804H233.945C228.649 191.789 221.648 201.796 213.285 210.482ZM213.285 148.054V179.986H234.336C239.03 170.044 242.333 159.316 243.992 148.054H213.285ZM212.466 179.986V148.054H180.535V179.986H212.466ZM244.108 147.236H213.285V115.304H244.108C244.838 120.522 245.216 125.852 245.216 131.27C245.216 136.688 244.838 142.018 244.108 147.236ZM243.992 114.486H213.285V82.5543H234.336C239.03 92.4955 242.333 103.223 243.992 114.486ZM233.945 81.7356H213.285V52.0576C221.648 60.7439 228.649 70.7511 233.945 81.7356ZM147.785 213.554H179.716V234.606C169.774 239.3 159.046 242.603 147.785 244.261V213.554ZM180.535 213.554V234.215C191.519 228.919 201.526 221.918 210.212 213.554H180.535ZM177.905 147.236H179.716V140.289C179.278 142.668 178.67 144.988 177.905 147.236ZM146.966 82.5543V84.3647C144.717 83.5999 142.397 82.9921 140.018 82.5543H146.966ZM82.2842 122.255V115.304H84.0951C83.33 117.553 82.7219 119.874 82.2842 122.255ZM82.2842 147.236V140.286C82.722 142.666 83.33 144.987 84.0951 147.236H82.2842ZM114.216 180.804H82.2842V212.736H114.216V180.804Z" fill="url(#paint0_radial_1_36038)"/>
</g>
<path d="M131 207.004C115.583 207.004 104.43 206.998 95.6946 206.207C87.0434 205.423 81.3672 203.906 76.7578 201.246L70.6172 211.881C77.4073 215.802 85.083 217.577 94.586 218.438C104.005 219.292 115.809 219.286 131 219.286V207.004ZM42.9844 131.27C42.9844 146.461 42.9784 158.265 43.8321 167.684C44.6934 177.187 46.4683 184.862 50.3885 191.653L61.0244 185.512C58.3632 180.903 56.8472 175.227 56.0632 166.576C55.2715 157.839 55.2656 146.687 55.2656 131.27H42.9844ZM76.7578 201.246C70.2234 197.473 64.7971 192.047 61.0244 185.512L50.3885 191.653C55.2391 200.054 62.2157 207.031 70.6172 211.881L76.7578 201.246ZM206.734 131.27C206.734 146.687 206.728 157.839 205.937 166.576C205.153 175.227 203.636 180.903 200.975 185.512L211.611 191.653C215.532 184.862 217.306 177.187 218.168 167.684C219.022 158.265 219.016 146.461 219.016 131.27H206.734ZM131 219.286C146.191 219.286 157.995 219.292 167.414 218.438C176.917 217.577 184.592 215.802 191.383 211.881L185.242 201.246C180.633 203.906 174.957 205.423 166.305 206.207C157.569 206.998 146.417 207.004 131 207.004V219.286ZM200.975 185.512C197.203 192.047 191.777 197.473 185.242 201.246L191.383 211.881C199.784 207.031 206.761 200.054 211.611 191.653L200.975 185.512ZM131 55.5356C146.417 55.5356 157.569 55.5415 166.305 56.3333C174.957 57.1174 180.633 58.6333 185.242 61.2944L191.383 50.6586C184.592 46.7383 176.917 44.9634 167.414 44.1021C157.995 43.2486 146.191 43.2544 131 43.2544V55.5356ZM219.016 131.27C219.016 116.079 219.022 104.275 218.168 94.856C217.306 85.3531 215.532 77.6773 211.611 70.8872L200.975 77.0278C203.636 81.6372 205.153 87.3134 205.937 95.9646C206.728 104.701 206.734 115.853 206.734 131.27H219.016ZM185.242 61.2944C191.777 65.0671 197.203 70.4934 200.975 77.0278L211.611 70.8872C206.761 62.4858 199.784 55.5091 191.383 50.6586L185.242 61.2944ZM131 43.2544C115.809 43.2544 104.005 43.2486 94.586 44.1021C85.083 44.9634 77.4073 46.7383 70.6172 50.6586L76.7578 61.2944C81.3672 58.6333 87.0434 57.1174 95.6946 56.3333C104.43 55.5415 115.583 55.5356 131 55.5356V43.2544ZM55.2656 131.27C55.2656 115.853 55.2715 104.701 56.0632 95.9646C56.8472 87.3134 58.3632 81.6372 61.0244 77.0278L50.3885 70.8872C46.4683 77.6773 44.6934 85.3531 43.8321 94.856C42.9784 104.275 42.9844 116.079 42.9844 131.27H55.2656ZM70.6172 50.6586C62.2157 55.5091 55.2391 62.4858 50.3885 70.8872L61.0244 77.0278C64.7971 70.4934 70.2234 65.0671 76.7578 61.2944L70.6172 50.6586Z" fill="#2F384C"/>
<path d="M131 212.633C115.686 212.633 104.235 212.633 95.1864 211.812C86.1449 210.993 79.5522 209.358 73.9434 206.12L73.4316 207.006C79.2222 210.35 85.9814 212.006 95.0941 212.832C104.199 213.657 115.705 213.657 131 213.657V212.633ZM48.6133 131.27C48.6133 146.565 48.6128 158.071 49.438 167.176C50.2639 176.289 51.9201 183.048 55.2633 188.838L56.1497 188.327C52.9113 182.718 51.2768 176.125 50.4573 167.083C49.6371 158.035 49.6367 146.584 49.6367 131.27H48.6133ZM73.9434 206.12C66.5532 201.853 60.4163 195.717 56.1497 188.327L55.2633 188.838C59.6198 196.384 65.8858 202.65 73.4316 207.006L73.9434 206.12ZM212.363 131.27C212.363 146.584 212.363 158.035 211.542 167.083C210.724 176.125 209.088 182.718 205.85 188.327L206.736 188.838C210.08 183.048 211.736 176.289 212.562 167.176C213.388 158.071 213.387 146.565 213.387 131.27H212.363ZM131 213.657C146.295 213.657 157.801 213.657 166.906 212.832C176.019 212.006 182.778 210.35 188.568 207.006L188.057 206.12C182.448 209.358 175.855 210.993 166.813 211.812C157.765 212.633 146.314 212.633 131 212.633V213.657ZM205.85 188.327C201.583 195.717 195.447 201.853 188.057 206.12L188.568 207.006C196.114 202.65 202.381 196.384 206.736 188.838L205.85 188.327ZM131 49.9067C146.314 49.9067 157.765 49.9072 166.813 50.7273C175.855 51.5468 182.448 53.1814 188.057 56.4197L188.568 55.5334C182.778 52.1901 176.019 50.534 166.906 49.7081C157.801 48.8828 146.295 48.8833 131 48.8833V49.9067ZM213.387 131.27C213.387 115.975 213.388 104.469 212.562 95.3641C211.736 86.2516 210.08 79.4923 206.736 73.7017L205.85 74.2134C209.088 79.8222 210.724 86.4149 211.542 95.4566C212.363 104.505 212.363 115.956 212.363 131.27H213.387ZM188.057 56.4197C195.447 60.6864 201.583 66.8232 205.85 74.2134L206.736 73.7017C202.381 66.156 196.114 59.8899 188.568 55.5334L188.057 56.4197ZM131 48.8833C115.705 48.8833 104.199 48.8828 95.0941 49.7081C85.9814 50.534 79.2222 52.1901 73.4316 55.5334L73.9434 56.4197C79.5522 53.1814 86.1449 51.5468 95.1864 50.7273C104.235 49.9072 115.686 49.9067 131 49.9067V48.8833ZM49.6367 131.27C49.6367 115.956 49.6371 104.505 50.4573 95.4566C51.2768 86.4149 52.9113 79.8222 56.1497 74.2134L55.2633 73.7017C51.9201 79.4923 50.2639 86.2516 49.438 95.3641C48.6128 104.469 48.6133 115.975 48.6133 131.27H49.6367ZM73.4316 55.5334C65.8858 59.8899 59.6198 66.156 55.2633 73.7017L56.1497 74.2134C60.4163 66.8232 66.5532 60.6864 73.9434 56.4197L73.4316 55.5334Z" fill="#33A0FF"/>
<path d="M129.977 52.4653C131.672 52.4653 133.047 51.0907 133.047 49.395C133.047 47.6993 131.672 46.3247 129.977 46.3247C128.281 46.3247 126.906 47.6993 126.906 49.395C126.906 51.0907 128.281 52.4653 129.977 52.4653Z" fill="white" stroke="#33A0FF" stroke-width="1.02344"/>
<path d="M187.289 58.606C188.985 58.606 190.359 57.2313 190.359 55.5356C190.359 53.84 188.985 52.4653 187.289 52.4653C185.593 52.4653 184.219 53.84 184.219 55.5356C184.219 57.2313 185.593 58.606 187.289 58.606Z" fill="white" stroke="#33A0FF" stroke-width="1.02344"/>
<path d="M205.711 77.0278C207.407 77.0278 208.781 75.6532 208.781 73.9575C208.781 72.2618 207.407 70.8872 205.711 70.8872C204.015 70.8872 202.641 72.2618 202.641 73.9575C202.641 75.6532 204.015 77.0278 205.711 77.0278Z" fill="white" stroke="#33A0FF" stroke-width="1.02344"/>
<path d="M211.852 134.34C213.547 134.34 214.922 132.966 214.922 131.27C214.922 129.574 213.547 128.2 211.852 128.2C210.156 128.2 208.781 129.574 208.781 131.27C208.781 132.966 210.156 134.34 211.852 134.34Z" fill="white" stroke="#33A0FF" stroke-width="1.02344"/>
<path d="M129.977 210.075C131.672 210.075 133.047 211.449 133.047 213.145C133.047 214.841 131.672 216.215 129.977 216.215C128.281 216.215 126.906 214.841 126.906 213.145C126.906 211.449 128.281 210.075 129.977 210.075Z" fill="white" stroke="#33A0FF" stroke-width="1.02344"/>
<path d="M187.289 203.934C188.985 203.934 190.359 205.309 190.359 207.004C190.359 208.7 188.985 210.075 187.289 210.075C185.593 210.075 184.219 208.7 184.219 207.004C184.219 205.309 185.593 203.934 187.289 203.934Z" fill="white" stroke="#33A0FF" stroke-width="1.02344"/>
<path d="M205.711 185.512C207.407 185.512 208.781 186.887 208.781 188.583C208.781 190.278 207.407 191.653 205.711 191.653C204.015 191.653 202.641 190.278 202.641 188.583C202.641 186.887 204.015 185.512 205.711 185.512Z" fill="white" stroke="#33A0FF" stroke-width="1.02344"/>
<path d="M211.852 128.2C213.547 128.2 214.922 129.574 214.922 131.27C214.922 132.966 213.547 134.34 211.852 134.34C210.156 134.34 208.781 132.966 208.781 131.27C208.781 129.574 210.156 128.2 211.852 128.2Z" fill="white" stroke="#33A0FF" stroke-width="1.02344"/>
<path d="M129.977 52.4653C128.281 52.4653 126.906 51.0907 126.906 49.395C126.906 47.6993 128.281 46.3247 129.977 46.3247C131.672 46.3247 133.047 47.6993 133.047 49.395C133.047 51.0907 131.672 52.4653 129.977 52.4653Z" fill="white" stroke="#33A0FF" stroke-width="1.02344"/>
<path d="M72.6641 58.606C70.9684 58.606 69.5938 57.2313 69.5938 55.5356C69.5938 53.84 70.9684 52.4653 72.6641 52.4653C74.3597 52.4653 75.7344 53.84 75.7344 55.5356C75.7344 57.2313 74.3597 58.606 72.6641 58.606Z" fill="white" stroke="#33A0FF" stroke-width="1.02344"/>
<path d="M54.2422 77.0278C52.5465 77.0278 51.1719 75.6532 51.1719 73.9575C51.1719 72.2618 52.5465 70.8872 54.2422 70.8872C55.9379 70.8872 57.3125 72.2618 57.3125 73.9575C57.3125 75.6532 55.9379 77.0278 54.2422 77.0278Z" fill="white" stroke="#33A0FF" stroke-width="1.02344"/>
<path d="M48.1016 134.34C46.4059 134.34 45.0312 132.966 45.0312 131.27C45.0312 129.574 46.4059 128.2 48.1016 128.2C49.7972 128.2 51.1719 129.574 51.1719 131.27C51.1719 132.966 49.7972 134.34 48.1016 134.34Z" fill="white" stroke="#33A0FF" stroke-width="1.02344"/>
<path d="M129.977 210.075C128.281 210.075 126.906 211.449 126.906 213.145C126.906 214.841 128.281 216.215 129.977 216.215C131.672 216.215 133.047 214.841 133.047 213.145C133.047 211.449 131.672 210.075 129.977 210.075Z" fill="white" stroke="#33A0FF" stroke-width="1.02344"/>
<path d="M72.6641 203.934C70.9684 203.934 69.5938 205.309 69.5938 207.004C69.5938 208.7 70.9684 210.075 72.6641 210.075C74.3597 210.075 75.7344 208.7 75.7344 207.004C75.7344 205.309 74.3597 203.934 72.6641 203.934Z" fill="white" stroke="#33A0FF" stroke-width="1.02344"/>
<path d="M54.2422 185.512C52.5465 185.512 51.1719 186.887 51.1719 188.583C51.1719 190.278 52.5465 191.653 54.2422 191.653C55.9379 191.653 57.3125 190.278 57.3125 188.583C57.3125 186.887 55.9379 185.512 54.2422 185.512Z" fill="white" stroke="#33A0FF" stroke-width="1.02344"/>
<path d="M48.1016 128.2C46.4059 128.2 45.0312 129.574 45.0312 131.27C45.0312 132.966 46.4059 134.34 48.1016 134.34C49.7972 134.34 51.1719 132.966 51.1719 131.27C51.1719 129.574 49.7972 128.2 48.1016 128.2Z" fill="white" stroke="#33A0FF" stroke-width="1.02344"/>
</g>
<defs>
<radialGradient id="paint0_radial_1_36038" cx="0" cy="0" r="1" gradientUnits="userSpaceOnUse" gradientTransform="translate(131 131.27) rotate(90) scale(131.29 131.29)">
<stop offset="0.901042" stop-color="#D6E9FF" stop-opacity="0.12"/>
<stop offset="1" stop-color="#D6E9FF" stop-opacity="0"/>
</radialGradient>
<clipPath id="clip0_1_36038">
<rect width="262" height="262" fill="white" transform="translate(0 0.27002)"/>
</clipPath>
</defs>
</svg>
